<?xml version="1.0" encoding="UTF-8" standalone="no"?>
<!-- Created with Inkscape (http://www.inkscape.org/) -->

<svg
   width="194.01285mm"
   height="97.613495mm"
   viewBox="0 0 194.01285 97.613495"
   version="1.1"
   id="svg1"
   xml:space="preserve"
   inkscape:version="1.3.2 (091e20ef0f, 2023-11-25)"
   sodipodi:docname="karpcapi-logo.svg"
   xmlns:inkscape="http://www.inkscape.org/namespaces/inkscape"
   xmlns:sodipodi="http://sodipodi.sourceforge.net/DTD/sodipodi-0.dtd"
   xmlns:xlink="http://www.w3.org/1999/xlink"
   xmlns="http://www.w3.org/2000/svg"
   xmlns:svg="http://www.w3.org/2000/svg"><sodipodi:namedview
     id="namedview1"
     pagecolor="#ffffff"
     bordercolor="#666666"
     borderopacity="1.0"
     inkscape:showpageshadow="2"
     inkscape:pageopacity="0.0"
     inkscape:pagecheckerboard="0"
     inkscape:deskcolor="#d1d1d1"
     inkscape:document-units="mm"
     inkscape:export-bgcolor="#ffffff00"
     showguides="true"
     showgrid="false"
     inkscape:zoom="1.5080481"
     inkscape:cx="316.63447"
     inkscape:cy="188.98602"
     inkscape:window-width="3086"
     inkscape:window-height="1322"
     inkscape:window-x="2072"
     inkscape:window-y="25"
     inkscape:window-maximized="0"
     inkscape:current-layer="layer1"><inkscape:grid
       id="grid1"
       units="px"
       originx="-7.5928991"
       originy="-37.561926"
       spacingx="0.26458333"
       spacingy="0.26458334"
       empcolor="#0099e5"
       empopacity="0.30196078"
       color="#0099e5"
       opacity="0.14901961"
       empspacing="5"
       dotted="false"
       gridanglex="30"
       gridanglez="30"
       visible="false" /></sodipodi:namedview><defs
     id="defs1"><style
       id="style1">.cls-1{fill:url(#linear-gradient);}.cls-2{fill:url(#linear-gradient-2);}.cls-3{fill:none;}.cls-4{fill:#326ce5;}.cls-5{fill:#fff;}.cls-6{fill:url(#linear-gradient-3);}</style><linearGradient
       id="linear-gradient"
       x1="181.03954"
       y1="121.68655"
       x2="233.39507"
       y2="121.68655"
       gradientUnits="userSpaceOnUse"><stop
         offset="0"
         stop-color="#326de6"
         id="stop1" /><stop
         offset="1"
         stop-color="#10ffc6"
         id="stop2" /></linearGradient><linearGradient
       id="linear-gradient-2"
       x1="153.85614"
       y1="42.109421"
       x2="194.09937"
       y2="42.109421"
       xlink:href="#linear-gradient" /><linearGradient
       id="linear-gradient-3"
       x1="40.12711"
       y1="287.01746"
       x2="284.87317"
       y2="287.01746"
       xlink:href="#linear-gradient" /><linearGradient
       inkscape:collect="always"
       xlink:href="#linear-gradient"
       id="linearGradient1"
       gradientUnits="userSpaceOnUse"
       x1="181.03954"
       y1="121.68655"
       x2="233.39507"
       y2="121.68655" /></defs><g
     inkscape:label="Layer 1"
     inkscape:groupmode="layer"
     id="layer1"
     transform="translate(-7.5928991,-37.561926)"><g
       id="g1"
       transform="matrix(0.26458333,0,0,0.26458333,125.54958,32.886192)"><path
         class="cls-1"
         d="m 181.03953,108.61345 c 0,0 11.53627,-18.62358 20.11178,-16.11951 8.57551,2.50407 18.2463,1.24654 24.98727,17.43893 4.71691,11.33043 8.285,9.48286 6.98737,20.06374 -1.72781,14.08826 -11.77871,17.94986 -11.77871,17.94986 l -23.88945,3.16433 z"
         id="path2"
         style="fill:url(#linearGradient1)" /><path
         class="cls-2"
         d="m 153.85614,32.972 c 0,0 10.56531,-16.373 16.89836,-14.52375 6.33305,1.84925 13.00767,-0.29793 17.98591,11.66022 3.48346,8.36758 6.11853,7.00314 5.16021,14.81717 -1.276,10.40425 -11.78248,12.95917 -11.78248,12.95917 l -10.13169,3.58568 -5.36572,4.44581 z"
         id="path3"
         style="fill:url(#linear-gradient-2)" /><path
         class="cls-3"
         d="m 149.90144,80.07874 c 0.9021,-0.556 0.97245,-1.0548 0.269,-1.82675 a 5.79251,5.79251 0 0 0 -1.07362,-0.91649 8.32891,8.32891 0 0 0 -5.3464,-1.17211 7.73515,7.73515 0 0 0 -3.97028,1.44543 l -0.64554,6.81449 a 38.28848,38.28848 0 0 0 5.27481,-1.60392 33.58911,33.58911 0 0 0 5.49203,-2.74065 z"
         id="path4" /><path
         class="cls-3"
         d="m 154.68175,60.80739 c -0.62133,-1.1659 -1.20253,-2.35415 -1.76944,-3.54789 -1.01363,-2.13432 -1.85428,-4.34033 -2.674,-6.55482 -0.16015,-0.43212 -0.28843,-0.9499 -0.95549,-0.8091 a 4.38931,4.38931 0 0 0 -2.32415,2.74541 c 0.0159,0.073 0.0381,0.19656 0.0697,0.3177 0.44484,1.70531 0.86486,3.41764 1.34384,5.11333 a 10.57716,10.57716 0 0 0 2.28776,4.50223 c 1.70013,1.82489 1.85634,1.81755 3.68248,0.148 a 1.38665,1.38665 0 0 0 0.33927,-1.91486 z"
         id="path5" /><path
         class="cls-3"
         d="m 148.0662,74.68382 a 12.00483,12.00483 0 0 1 3.67172,2.787 c 0.16428,0.17111 0.31242,0.477 0.60126,0.35618 0.28263,-0.11814 0.18994,-0.44225 0.187,-0.68009 a 11.75047,11.75047 0 0 0 -0.63995,-3.23722 6.76472,6.76472 0 0 1 0.10076,-4.18515 17.57246,17.57246 0 0 1 1.49012,-3.47082 c 0.168,-0.28356 0.52223,-0.60188 0.31657,-0.92941 -0.20256,-0.32267 -0.65382,-0.17628 -0.97245,-0.12714 -2.0169,0.31118 -3.18757,-0.60737 -3.94277,-2.426 -0.94389,-2.27264 -1.87868,-4.54682 -2.73609,-6.85339 -1.08935,-2.93017 -0.80921,-5.50634 1.84661,-7.52448 A 1.62579,1.62579 0 0 0 148.45679,46.13577 54.61947,54.61947 0 0 0 143.54,37.915 l -0.26525,2.79983 a 19.858,19.858 0 0 1 2.20435,4.48071 3.84468,3.84468 0 0 1 -0.74361,3.86962 l -0.78644,-1.47533 a 4.26517,4.26517 0 0 1 -1.54909,2.36264 l -0.39974,4.2196 a 3.00011,3.00011 0 0 1 2.72,1.39278 c 2.08725,3.34243 4.08325,6.74931 4.89245,10.67883 a 4.63015,4.63015 0 0 1 -1.83151,4.84455 c -2.28423,1.812 -5.00377,2.65572 -7.71546,3.50672 l -0.0914,0.96345 q 0.51086,-0.28119 1.05149,-0.53547 a 8.07962,8.07962 0 0 1 7.04046,-0.33911 z"
         id="path6" /><path
         class="cls-3"
         d="m 143.75515,44.89968 c -0.20815,-0.543 -0.48064,-1.04321 -0.72913,-1.55944 l -0.20236,2.13825 1.12536,2.11135 a 4.49724,4.49724 0 0 0 -0.19387,-2.69016 z"
         id="path7" /><path
         class="cls-3"
         d="m 147.18644,70.04855 a 2.65373,2.65373 0 0 0 1.2375,-3.49781 21.87319,21.87319 0 0 0 -1.32378,-3.2365 c -1.05831,-2.22122 -2.38456,-4.30536 -3.34129,-6.578 -0.48291,-1.14635 -0.86817,-1.40353 -1.90621,-1.007 l -0.23028,2.43185 0.37263,14.36545 a 20.19078,20.19078 0 0 0 5.19143,-2.47799 z"
         id="path8" /><path
         class="cls-3"
         d="m 155.05728,74.715 a 9.71888,9.71888 0 0 0 2.57947,-6.70793 c 0,-0.47216 0.002,-0.94431 -0.002,-1.41636 a 1.25052,1.25052 0 0 0 -0.0389,-0.28025 c -0.21621,-0.90562 -0.73906,-1.10953 -1.39205,-0.48188 a 9.91924,9.91924 0 0 0 -2.63927,3.64513 6.65611,6.65611 0 0 0 0.002,4.97852 c 0.3656,0.87113 0.93086,0.9392 1.49033,0.26277 z"
         id="path9" /><path
         class="cls-3"
         d="m 190.05158,33.90625 a 31.18407,31.18407 0 0 1 -3.69138,-5.925 13.82819,13.82819 0 0 0 -5.91393,-6.57738 c -5.1124,-2.79155 -10.32845,-2.44881 -15.48181,-0.167 -4.009,1.775 -6.66851,4.998 -8.69079,8.78122 -3.40875,6.37678 -4.30505,12.81429 -0.32877,19.32049 a 11.56552,11.56552 0 0 1 1.475,8.81194 7.97878,7.97878 0 0 0 1.45205,7.06235 3.66571,3.66571 0 0 1 0.63747,3.14122 19.03946,19.03946 0 0 1 -10.12381,13.94968 l -11.25577,14.7471 c 1.76489,-0.42788 2.33636,-0.04945 2.73879,1.73893 0.34615,1.53771 0.6143,3.0959 1.02935,4.61437 a 3.90614,3.90614 0 0 0 3.91214,3.21353 c 0.21973,0.0197 0.43677,0.0668 0.6563,0.0851 a 22.70071,22.70071 0 0 0 11.38137,-1.724 c 3.23474,-1.45143 4.38368,-4.38295 3.12094,-7.67862 -0.90334,-2.35736 -1.912,-4.66993 -3.00548,-6.945 a 1.81462,1.81462 0 0 1 -0.21022,-1.63041 21.96921,21.96921 0 0 1 2.326,-4.42226 21.09088,21.09088 0 0 0 3.95124,-8.30751 c 0.84355,-3.36477 1.6571,-6.73865 2.59044,-10.07871 a 7.92746,7.92746 0 0 1 6.4821,-6.14236 c 1.57868,-0.30332 3.1377,-0.70988 4.71534,-1.01941 0.719,-0.141 0.851,-0.35184 0.38774,-0.96842 -0.64306,-0.85585 -1.23894,-1.75082 -1.80276,-2.6614 -1.39887,-2.2595 -2.79879,-4.51144 -5.07349,-6.03188 -0.12994,-0.08679 -0.29629,-0.19583 -0.24911,-0.3628 0.0753,-0.2666 0.34594,-0.22708 0.55533,-0.26194 a 3.66724,3.66724 0 0 0 3.01,-1.84641 c 0.36084,-0.70379 1.08417,-0.69179 1.7591,-0.58068 a 3.613,3.613 0 0 1 2.84037,2.72327 2.92512,2.92512 0 0 1 -1.46177,3.37667 c -1.11522,0.77289 -1.2466,1.56234 -0.43388,2.61072 a 7.057,7.057 0 0 0 7.14564,2.01028 13.33065,13.33065 0 0 0 6.67058,-5.90577 c 2.00076,-3.28739 3.07708,-6.77165 2.22546,-10.64676 a 16.20957,16.20957 0 0 0 -3.33978,-6.30319 z m -9.39076,4.08749 a 1.26072,1.26072 0 0 1 -1.35418,0.66488 1.38714,1.38714 0 0 1 -1.24246,-0.87241 3.40429,3.40429 0 0 1 -0.17132,-1.39308 4.00259,4.00259 0 0 1 0.19677,-1.48671 1.31369,1.31369 0 0 1 1.15121,-0.97369 1.36441,1.36441 0 0 1 1.3515,0.70565 3.6171,3.6171 0 0 1 0.0685,3.35536 z"
         id="path10" /><path
         d="m 136.66434,83.23175 c -0.0106,1.60154 0.11359,1.71141 1.67985,1.39091 0.26691,-0.05462 0.52513,-0.13852 0.79038,-0.19935 l 0.64554,-6.81449 a 7.12431,7.12431 0 0 0 -3.11577,5.62293 z"
         id="path11" /><path
         class="cls-4"
         d="m 189.9833,30.87665 a 21.19065,21.19065 0 0 1 -3.09735,-5.29033 6.4597,6.4597 0 0 0 -1.33909,-2.14456 18.1334,18.1334 0 0 0 -23.94521,-2.08228 c -3.31936,2.545 -5.419,6.04419 -7.14936,9.75377 a 20.81218,20.81218 0 0 0 -0.2758,17.86264 c 0.51809,1.18339 1.13818,2.32178 1.68006,3.49523 a 6.39359,6.39359 0 0 1 0.33022,4.96653 c -0.28056,0.793 -0.755,0.89527 -1.21742,0.28573 a 12.287,12.287 0 0 1 -2.12615,-3.76813 77.44677,77.44677 0 0 0 -6.19388,-14.30111 26.92346,26.92346 0 0 0 -2.87576,-4.20449 L 143.54,37.915 a 54.61947,54.61947 0 0 1 4.91686,8.22071 1.62579,1.62579 0 0 1 -0.46781,2.25753 c -2.65582,2.01814 -2.936,4.59431 -1.84661,7.52448 0.85741,2.30657 1.7922,4.58075 2.73609,6.85339 0.7552,1.81868 1.92587,2.73723 3.94277,2.426 0.31863,-0.04914 0.76989,-0.19553 0.97245,0.12714 0.20566,0.32753 -0.14856,0.64585 -0.31657,0.92941 a 17.57246,17.57246 0 0 0 -1.49012,3.47082 6.76472,6.76472 0 0 0 -0.10076,4.18515 11.75047,11.75047 0 0 1 0.63995,3.23722 c 0.003,0.23784 0.0956,0.56195 -0.187,0.68009 -0.28884,0.12084 -0.437,-0.18507 -0.60126,-0.35618 a 12.00483,12.00483 0 0 0 -3.67172,-2.787 8.07962,8.07962 0 0 0 -7.04053,0.33912 q -0.54064,0.25418 -1.05149,0.53547 l -0.19407,2.05041 a 7.73515,7.73515 0 0 1 3.97028,-1.44543 8.32891,8.32891 0 0 1 5.3464,1.17211 5.79251,5.79251 0 0 1 1.07362,0.91649 c 0.70348,0.77195 0.63313,1.2707 -0.269,1.82675 a 33.58911,33.58911 0 0 1 -5.49206,2.74065 38.28848,38.28848 0 0 1 -5.27481,1.60392 l -1.32216,13.95895 c 1.32915,-0.37957 1.47357,-0.30312 1.77027,1.08572 a 37.40642,37.40642 0 0 0 1.12266,4.3 c 1.14108,3.34005 2.75141,4.49447 6.25223,4.77772 a 24.65,24.65 0 0 0 11.86305,-2.23767 c 3.77972,-1.62512 5.30522,-5.92438 3.6893,-10.0905 a 28.92875,28.92875 0 0 0 -1.9691,-3.66313 9.74322,9.74322 0 0 1 -0.99335,-2.34464 3.76135,3.76135 0 0 1 1.06369,-4.04745 c 2.468,-2.28774 3.61834,-5.3494 4.69962,-8.42534 a 39.83248,39.83248 0 0 0 2.12077,-8.62335 c 0.5185,-4.51247 3.32453,-6.71734 7.32709,-7.87694 2.08994,-0.6055 4.1985,-1.14542 6.263,-1.8402 a 27.76476,27.76476 0 0 0 7.1537,-3.40109 15.2229,15.2229 0 0 0 6.48893,-9.433 c 0.0811,-0.36767 0.19945,-0.72727 0.30042,-1.09059 V 40.739 c -0.6621,-3.79168 -2.71459,-6.87993 -4.98143,-9.86235 z M 150.66,62.57425 a 10.57716,10.57716 0 0 1 -2.28774,-4.50223 c -0.479,-1.69569 -0.899,-3.408 -1.34384,-5.11333 -0.0317,-0.12114 -0.0538,-0.24466 -0.0697,-0.3177 a 4.38931,4.38931 0 0 1 2.32415,-2.74541 c 0.66706,-0.1408 0.79534,0.377 0.95549,0.8091 0.81975,2.21449 1.6604,4.4205 2.674,6.55482 0.56691,1.19374 1.14811,2.382 1.76944,3.54789 a 1.38665,1.38665 0 0 1 -0.33932,1.9149 c -1.82616,1.66951 -1.98237,1.67685 -3.68245,-0.14804 z m 2.90472,6.89942 a 9.91924,9.91924 0 0 1 2.63927,-3.64513 c 0.653,-0.62765 1.17584,-0.42374 1.39205,0.48188 a 1.25052,1.25052 0 0 1 0.0389,0.28025 c 0.004,0.472 0.002,0.9442 0.002,1.41636 a 9.71888,9.71888 0 0 1 -2.57947,6.70793 c -0.55947,0.67647 -1.12473,0.6084 -1.49033,-0.26277 a 6.65611,6.65611 0 0 1 -0.002,-4.97852 z M 191.166,50.85613 a 13.33065,13.33065 0 0 1 -6.67058,5.90577 7.057,7.057 0 0 1 -7.14564,-2.01028 c -0.81272,-1.04838 -0.68134,-1.83783 0.43388,-2.61072 A 2.92512,2.92512 0 0 0 179.24543,48.76423 3.613,3.613 0 0 0 176.405,46.041 c -0.67493,-0.11111 -1.39826,-0.12311 -1.7591,0.58068 a 3.66724,3.66724 0 0 1 -3.01,1.84641 c -0.20939,0.03486 -0.48,-0.0047 -0.55533,0.26194 -0.0472,0.167 0.11917,0.276 0.24911,0.3628 2.2747,1.52044 3.67462,3.77238 5.07349,6.03188 0.56382,0.91058 1.1597,1.80555 1.80276,2.6614 0.46326,0.61658 0.33125,0.82741 -0.38774,0.96842 -1.57764,0.30953 -3.13666,0.71609 -4.71534,1.01941 a 7.92746,7.92746 0 0 0 -6.4821,6.14236 c -0.93334,3.34006 -1.74689,6.71394 -2.59044,10.07871 a 21.09088,21.09088 0 0 1 -3.95124,8.30751 21.96921,21.96921 0 0 0 -2.326,4.42226 1.81462,1.81462 0 0 0 0.21022,1.63041 c 1.09348,2.27511 2.10214,4.58768 3.00548,6.945 1.26274,3.29567 0.1138,6.22719 -3.12094,7.67862 a 22.70071,22.70071 0 0 1 -11.38137,1.724 c -0.21953,-0.0183 -0.43657,-0.0655 -0.6563,-0.0851 a 3.90614,3.90614 0 0 1 -3.91214,-3.21353 c -0.415,-1.51847 -0.6832,-3.07666 -1.02935,-4.61437 -0.40243,-1.78838 -0.9739,-2.16681 -2.73879,-1.73893 L 149.38567,82.3038 a 19.03946,19.03946 0 0 0 10.12381,-13.94968 3.66571,3.66571 0 0 0 -0.63747,-3.14122 7.97878,7.97878 0 0 1 -1.45205,-7.06235 11.56552,11.56552 0 0 0 -1.475,-8.81194 c -3.97628,-6.5062 -3.08,-12.94371 0.32877,-19.32049 2.02228,-3.78324 4.68182,-7.00619 8.69079,-8.78122 5.15336,-2.28184 10.36941,-2.62458 15.48181,0.167 a 13.82819,13.82819 0 0 1 5.91393,6.57738 31.18407,31.18407 0 0 0 3.69138,5.925 16.20957,16.20957 0 0 1 3.33984,6.30312 c 0.85152,3.87512 -0.22476,7.35938 -2.22548,10.64677 z"
         id="path12" /><path
         class="cls-4"
         d="m 179.24084,33.93273 a 1.31369,1.31369 0 0 0 -1.15121,0.97369 4.00259,4.00259 0 0 0 -0.19677,1.48671 3.40429,3.40429 0 0 0 0.17132,1.39308 1.38714,1.38714 0 0 0 1.24246,0.87241 1.26072,1.26072 0 0 0 1.35418,-0.66488 3.6171,3.6171 0 0 0 -0.0685,-3.35536 1.36441,1.36441 0 0 0 -1.3515,-0.70565 z"
         id="path13" /><path
         d="m 141.85266,55.72924 c 1.038,-0.39653 1.4233,-0.13935 1.90621,1.007 0.95673,2.27264 2.283,4.35678 3.34129,6.578 a 21.87319,21.87319 0 0 1 1.32378,3.2365 2.65373,2.65373 0 0 1 -1.2375,3.49781 20.19078,20.19078 0 0 1 -5.19143,2.478 L 141.62238,58.1611 Z"
         id="path14" /><path
         class="cls-4"
         d="m 151.22335,99.44144 c 4.81076,3.56867 9.52164,6.94743 12.75984,11.95605 4.98975,7.71774 7.66444,16.27311 9.61527,25.12386 a 21.30891,21.30891 0 0 0 2.20167,6.51252 c 0.44934,0.75235 0.76746,1.9489 1.84894,1.79145 1.26364,-0.18394 1.38261,-1.47011 1.54293,-2.50005 0.49506,-3.18034 -0.53533,-6.084 -1.80253,-8.90572 -1.74527,-3.88627 -2.6799,-7.81837 -1.08519,-12.00469 1.01139,3.99829 0.62164,8.39833 2.89952,12.02621 a 11.71022,11.71022 0 0 1 1.144,10.18679 c -1.26974,4.116 -1.75879,8.02319 0.59536,11.98518 1.08,1.81772 0.50195,4.04419 -0.20874,5.85284 -2.568,6.53524 -6.82649,12.18492 -13.28009,14.71793 -28.5122,11.19091 -56.22739,9.86077 -82.52451,-6.80424 -3.33847,-2.11566 -6.36363,-4.72572 -10.54577,-7.86664 5.39685,9.91659 11.07082,17.91295 18.98912,24.03658 2.28475,1.7669 2.88044,3.18441 2.01417,6.12539 -2.78177,9.44407 4.98659,17.07386 14.69831,14.75332 a 20.41682,20.41682 0 0 1 4.01413,-1.02254 c 3.58392,-0.0842 4.58671,-2.09383 4.92626,-5.29724 0.72922,-6.87959 2.16656,-7.80161 9.02157,-5.8914 5.98208,1.667 12.00884,2.79338 18.19374,1.77915 4.23469,-0.69443 5.591,1.13224 5.29817,5.02441 -0.347,4.61239 1.73389,7.65283 6.15041,9.00858 a 25.4393,25.4393 0 0 0 17.15634,-0.81755 c 3.88358,-1.54734 5.94928,-4.80082 4.60448,-9.34762 -0.697,-2.35672 -0.9797,-4.91072 -2.07048,-7.06052 -2.193,-4.32208 -0.66148,-7.67743 2.225,-10.72316 a 34.26315,34.26315 0 0 0 7.51112,-12.57177 c 1.36207,-3.91987 2.84841,-7.79741 4.32687,-11.67575 1.79964,-4.72093 5.09356,-7.46324 10.25046,-8.04829 2.37025,-0.2689 4.92874,0.38418 7.32242,-1.14431 -0.89218,-1.68892 -1.74076,-3.29533 -2.58936,-4.90174 l -0.0838,0.0764 c 2.27314,-1.03377 2.88953,1.23046 4.002,2.19576 a 6.85184,6.85184 0 0 0 6.368,1.65964 c 9.48228,-2.00689 19.3529,-16.11745 14.10423,-26.319 -2.72178,-5.29015 -5.67476,-10.45894 -7.69415,-16.12371 a 13.99054,13.99054 0 0 0 -5.82265,-6.92176 c -10.9988,-7.07791 -24.6321,-4.7853 -32.98334,5.50838 -4.26167,5.25292 -6.64264,11.27109 -8.09735,17.757 0.76695,-12.40094 6.71973,-21.526 17.61943,-27.32544 12.1948,-6.48855 29.38508,1.24149 32.50778,14.61944 0.70589,3.02407 2.97284,4.92113 4.33366,7.45971 8.03,14.97991 0.57,28.83872 -15.59235,33.41105 -3.68009,1.04112 -7.57612,1.30292 -11.35717,2.007 -5.79689,1.07952 -9.94534,3.61876 -11.77759,9.96871 -2.458,8.51867 -5.20477,17.043 -12.54688,23.16244 -3.04573,2.53852 -1.042,6.2078 0.1337,9.05837 4.65217,11.27933 1.6605,16.92487 -10.21189,18.6937 -1.507,0.22453 -2.99916,0.54931 -5.907,1.08924 a 65.18109,65.18109 0 0 1 12.42988,11.853 c 3.336,3.88692 5.47506,8.40074 7.91146,12.85169 a 160.54708,160.54708 0 0 1 11.66873,27.97089 17.88894,17.88894 0 0 0 3.67069,6.33646 c 0.73014,0.83292 1.08759,2.75858 2.55642,2.03 0.84565,-0.41946 1.301,-2.00693 1.56353,-3.15306 0.98562,-4.30261 -0.29639,-8.28073 -2.326,-11.97341 -11.67813,-21.24738 -6.8765,-40.60256 6.934,-58.72249 15.2024,-19.94617 46.80144,-18.52469 60.67949,0.0933 0.0918,0.12307 0.25228,0.21819 0.29277,0.35282 3.14218,10.44731 12.078,17.49227 16.12149,27.38978 a 33.75888,33.75888 0 0 1 -11.45242,40.19023 c -7.93992,5.7547 -16.6366,8.32349 -25.62126,10.88253 -2.21809,0.63177 -4.49528,1.0953 -6.65631,1.88092 -7.11224,2.58559 -12.47346,6.50392 -13.83374,14.8646 -1.62818,10.00727 -4.07412,19.87834 -8.36073,29.19443 a 31.18618,31.18618 0 0 1 -7.06574,10.1301 c -3.04234,2.80394 -3.21332,5.79361 -2.0182,9.58705 1.754,5.56725 6.26232,9.68681 7.24207,15.73039 1.46234,9.02053 -1.70675,15.7903 -10.24494,19.114 -7.92783,3.08611 -16.01646,5.12933 -24.73814,4.20143 -7.7579,-0.8254 -10.78716,-2.72954 -13.32523,-10.37711 a 89.31678,89.31678 0 0 1 -2.61,-10.25725 c -0.34622,-1.69417 -0.76029,-2.52335 -2.66627,-1.898 -11.63221,3.81675 -23.49054,1.35 -35.26579,1.19924 -1.07678,-0.0138 -2.15855,-0.011 -3.2285,-0.1144 -3.16226,-0.30557 -4.44981,0.96706 -4.19765,4.24019 a 20.6509,20.6509 0 0 1 -5.08362,15.80787 c -1.51155,1.73333 -3.1704,3.107 -5.3565,3.21689 -9.08543,0.45668 -18.2196,0.85945 -26.64068,-3.569 -4.34509,-2.285 -7.13491,-5.82309 -7.47893,-10.87317 -0.282,-4.13935 -0.73523,-8.36683 0.55943,-12.37238 0.65706,-2.03284 -0.12052,-2.86959 -1.5496,-3.67717 -16.55649,-9.356 -28.30109,-23.43435 -38.30382,-39.17822 -1.52884,-2.40633 -5.58534,-5.10455 -0.21936,-7.8739 0.18461,-0.0953 0.26,-0.565 0.24808,-0.85451 -0.3285,-8.0029 4.78972,-13.13282 9.27363,-18.8871 3.45626,-4.4355 4.25952,-10.46095 5.74172,-15.85627 7.48364,-27.24087 19.86915,-50.61288 47.24528,-62.8183 a 24.442,24.442 0 0 0 2.4193,-1.33687 6.81072,6.81072 0 0 0 0.84178,-0.74061 9.31743,9.31743 0 0 0 -1.39113,-1.05845 c -8.37939,-4.1711 -9.74655,-6.62794 -7.59984,-15.70744 0.57942,-2.45061 0.08086,-3.62579 -1.73984,-4.96 -9.34228,-6.84606 -15.14591,-16.46114 -20.20838,-26.54577 -2.07357,-4.13061 0.77887,-8.3471 3.08243,-10.52569 7.42016,-7.01762 9.63572,-16.64758 14.02718,-25.11088 4.98469,-9.60656 11.54051,-17.44285 20.91588,-22.71224 2.54535,-1.43059 2.90459,-2.365 1.01313,-4.34662 l -0.003,0.01616 c 3.64732,1.79231 7.01852,0.81068 10.30463,-1.02571 l -0.112,-0.15506 c 6.82482,0.38953 13.63809,-1.11355 20.4797,-0.10651 0.89076,0.13112 0.94424,-0.99132 0.93527,-1.76625 l -0.146,0.178 c 3.63431,3.919 8.12956,4.654 14.24905,1.87956 m 78.19617,157.43152 c 4.362,-0.45724 6.9848,-1.15735 8.41252,-4.23785 0.70062,-1.51169 2.62425,-1.86986 4.46622,-1.14852 2.73687,1.07184 4.81372,2.66391 5.42662,5.7342 0.61644,3.088 -0.33483,5.44854 -3.09051,7.02558 -1.78368,1.02077 -2.93273,2.39215 -2.02764,4.52126 1.82816,4.30052 10.71178,8.03718 15.46492,6.508 7.61833,-2.45092 12.84207,-7.85661 16.66988,-14.52275 5.797,-10.0955 7.21985,-20.38159 0.65241,-30.96274 -3.47617,-5.60067 -8.20185,-10.31749 -10.89618,-16.47234 -6.47847,-14.7992 -19.17874,-22.05182 -34.96033,-20.29281 -17.15823,1.91245 -27.51675,12.43 -34.25114,27.31371 -5.72331,12.64906 -6.16669,25.55085 1.11437,37.58138 3.70832,6.12722 5.16894,11.94383 3.68328,18.74986 -1.296,5.93743 -1.05579,11.60443 3.10641,16.55948 1.87286,2.22962 1.6223,5.00373 1.12726,7.52009 -2.48082,12.61 -9.32581,22.45858 -20.434,28.71061 -19.67014,11.07094 -40.99867,16.06909 -63.5811,16.5409 -22.99307,0.48042 -44.97106,-2.90165 -65.53373,-13.84522 -6.47511,-3.44609 -12.3629,-7.71681 -18.92824,-12.23139 6.07007,11.905 22.40274,28.78563 35.45545,36.33036 3.29746,1.906 4.19252,3.67238 3.11151,7.28176 -3.87331,12.93248 4.099,20.10714 12.30068,22.48451 4.17324,1.20971 8.49838,1.00348 12.82711,0.60491 11.24585,-1.03548 13.26456,-3.11537 13.3934,-14.29321 0.10081,-8.74693 2.29241,-10.73766 10.92274,-9.19307 11.62312,2.08018 23.19078,2.623 34.716,-0.39316 3.25579,-0.852 4.52072,0.65447 5.09743,3.49757 0.73187,3.60794 1.29437,7.27262 2.35228,10.78561 1.02,3.38717 3.4527,6.22691 6.93,6.69348 9.57683,1.28506 19.06153,0.5048 28.06193,-3.36239 6.942,-2.98276 9.864,-9.64224 7.2288,-16.74236 -1.8683,-5.0337 -4.12956,-9.92458 -6.30672,-14.83877 -0.624,-1.40852 -1.79369,-2.80989 -0.91191,-4.29985 1.64157,-2.77377 2.28188,-6.01936 4.38728,-8.57634 a 47.30493,47.30493 0 0 0 9.48459,-19.76879 c 1.56152,-6.73862 3.43624,-13.40448 5.15632,-20.10664 1.93576,-7.5425 6.01023,-12.96928 14.10888,-14.574 4.26066,-0.84426 8.49048,-1.84433 13.10717,-2.8557 -6.26841,-6.99118 -8.54694,-16.25723 -17.84396,-21.72537 z m -36.083,35.64251 c -8.99669,0.93715 -9.06232,0.96639 -12.82385,-7.4794 -1.74884,-3.9267 -3.25207,-7.96764 -4.7494,-12.00031 -2.25079,-6.06185 -2.38472,-11.6724 3.37856,-16.16446 1.50023,-1.1693 3.044,-2.67837 1.83087,-5.12684 -6.62655,-13.37378 -14.47173,-25.75492 -27.28847,-34.18441 -2.32972,-1.53225 -4.12694,-2.11105 -6.764,0.22288 -10.5659,9.35129 -29.3818,8.36121 -40.25449,1.495 a 7.31587,7.31587 0 0 1 -3.25861,-4.30373 c -0.21533,-0.74132 -0.2512,-2.1568 -1.52573,-1.86382 a 7.59208,7.59208 0 0 0 -4.29118,2.5437 c -0.871,1.09024 0.0342,1.87627 0.76377,2.74809 a 27.03262,27.03262 0 0 0 13.182,8.78134 c 6.0432,1.82651 6.8089,3.0852 5.893,9.30454 -1.3961,9.48035 -4.3444,18.54691 -7.40751,27.57956 -2.25154,6.63941 -5.64429,9.52263 -12.41438,8.64443 C 88.92888,267.82846 76.146,263.3699 66.659,252.27641 c -0.70634,-0.826 -1.198,-2.60426 -2.77154,-1.437 -1.34582,0.99832 -2.6875,2.334 -1.81037,4.28561 a 9.62088,9.62088 0 0 0 1.95957,2.5274 c 4.18434,4.35147 9.87808,6.083 15.18309,8.34873 4.91875,2.10081 7.39333,5.60506 8.45607,10.63464 2.04254,9.66666 -1.0719,18.2129 -5.64624,26.38385 -1.48744,2.65692 -3.85279,3.71692 -7.37589,3.25134 -4.229,-0.55887 -8.00532,-2.4845 -12.7572,-3.56111 5.91286,7.37744 8.59742,14.68231 4.27084,23.09743 -1.18271,2.30032 0.85074,2.61395 2.02026,3.27079 1.7644,0.99094 2.02891,-0.51021 2.334,-1.7222 1.70893,-6.78826 5.79543,-11.76014 12.88264,-11.95562 12.23056,-0.33734 26.05429,4.372 27.35631,20.54716 0.0939,1.16688 -0.72062,3.19863 1.43735,3.27164 1.79244,0.0607 1.28842,-1.78557 1.52642,-2.86119 3.01265,-13.61552 14.0092,-16.3595 23.69418,-15.393 7.96076,0.79447 14.96026,3.69778 17.87167,12.25039 0.29421,0.8643 0.561,2.2089 2.22924,1.64552 -1.52863,-8.6797 0.006,-16.25967 8.1573,-21.13817 4.67015,-2.79509 9.57325,-4.97182 15.28668,-3.96933 5.531,0.97047 9.3906,4.56132 13.46384,9.13908 1.47052,-5.93143 -2.36027,-10.4132 -1.6248,-15.48437 0.74668,-5.148 3.0813,-9.50047 5.69539,-13.98089 z m -95.90372,-23.44884 c 5.80863,-0.56453 8.81513,-1.556 10.19444,-7.28835 q 2.68842,-11.17318 5.70158,-22.26747 c 1.84832,-6.81369 1.89758,-6.70821 -4.45484,-9.67724 -5.21733,-2.43851 -11.179,-4.00375 -13.76066,-10.01264 -1.45449,-3.38532 -3.53607,-3.30622 -6.18177,-1.57749 a 84.284,84.284 0 0 0 -26.8606,27.91441 c -1.40247,2.37 -1.37914,4.45662 0.66187,6.65723 9.39072,10.12511 21.58857,14.13621 34.69981,16.25154 z M 85.04147,277.47 c 0.85213,-2.81155 -1.50178,-4.81084 -5.18033,-6.41193 A 74.06259,74.06259 0 0 1 64.37685,262.0516 c -4.56365,-3.49012 -5.31943,-3.5047 -7.06382,1.90426 -2.35127,7.29073 -4.255,14.725 -6.41407,22.0791 -0.46368,1.57929 0.24523,2.567 1.149,3.70291 5.689,7.14965 13.628,10.753 21.81774,13.96943 1.91643,0.75264 2.95832,-0.26917 4.19354,-1.73271 5.65276,-6.69777 6.08422,-14.83889 6.98223,-24.50459 z m 3.45624,41.23181 c -6.98787,-0.24332 -11.1908,1.47527 -13.64867,6.27385 -2.13724,4.17262 -1.19849,6.6254 3.22212,8.14019 8.00466,2.74285 16.29492,4.36444 24.57853,6 3.3732,0.666 4.54151,-1.03305 4.48167,-4.02695 a 12.94547,12.94547 0 0 0 -2.065,-6.95329 20.3177,20.3177 0 0 0 -16.56865,-9.4338 z m -22.94154,-0.95716 c -0.08615,-7.73432 -10.16084,-18.08989 -17.91464,-18.414 -6.8301,-0.28558 -9.94465,4.81118 -6.84956,11.00362 3.40542,6.81332 9.88483,9.78015 16.08192,13.07336 5.21685,2.77224 8.74975,0.39509 8.68228,-5.66298 z m 94.01856,11.34941 c 0.3289,1.62012 -1.12871,4.58269 2.92618,3.78135 a 79.28421,79.28421 0 0 0 26.898,-10.45067 c 1.83088,-1.14176 1.84853,-2.01528 0.60677,-3.56866 -3.83585,-4.79853 -11.94628,-6.6035 -19.1177,-4.14465 -6.43898,2.20766 -11.18718,8.17503 -11.31325,14.38263 z m -33.60222,10.42541 c 6.32876,-0.34943 13.9587,-0.85446 21.58166,-1.96276 4.55368,-0.66208 4.12834,-2.42417 2.37124,-5.23648 -6.19795,-9.91993 -23.46253,-10.52819 -30.26122,-1.04785 -1.53516,2.14064 -3.031,4.86088 -1.9111,7.239 0.99188,2.10628 3.91731,0.68615 5.96224,1.00173 0.30028,0.0463 0.61387,0.006 2.25718,0.006 z m 3.87163,-133.06636 c -5.47807,-0.13731 -11.03675,0.0797 -16.42939,2.45756 -2.14423,0.94551 -2.34438,1.523 -1.11416,3.08692 a 12.87169,12.87169 0 0 0 2.54879,2.63759 c 7.243,5.09753 27.07932,3.94462 33.98644,-1.73592 2.49475,-2.05174 1.94084,-3.23181 -0.7064,-3.92716 -5.92002,-1.55493 -11.76335,-3.81016 -18.28528,-2.51899 z M 182.063,262.4166 c 2.02354,6.26015 2.75441,12.63149 5.61931,18.29984 a 26.45411,26.45411 0 0 0 4.25408,5.39559 c 1.40433,1.5572 3.14972,2.12506 4.7366,0.28454 1.44116,-1.67154 4.74536,-2.48771 2.94577,-5.8329 a 161.98471,161.98471 0 0 1 -9.82608,-22.35414 c -0.38339,-1.07387 -1.05969,-2.89263 -2.4337,-2.093 a 11.45807,11.45807 0 0 0 -5.29598,6.30007 z m -51.21553,-59.06692 a 112.63165,112.63165 0 0 1 15.90525,2.35661 c 1.13857,0.23106 2.78709,1.46836 3.32565,0.44713 1.19855,-2.27272 -0.41784,-4.72256 -0.4751,-7.13953 -0.0352,-1.48684 -1.172,-1.62076 -2.309,-1.469 -6.64443,0.8873 -13.09187,-0.58309 -19.60041,-1.50634 -6.62371,-0.9396 -6.81426,-0.61211 -7.44316,6.097 -0.16693,1.78093 0.39121,2.15842 1.94489,2.00066 2.8885,-0.29321 5.78286,-0.52893 8.65186,-0.78653 z m 64.888,101.19356 c 0.0119,2.14429 -0.13453,4.29235 1.13687,6.23689 0.91138,1.39385 1.69185,2.13673 3.10459,0.49426 4.634,-5.38751 7.01841,-11.477 5.95047,-18.65522 -0.39,-2.62129 -1.80269,-3.23076 -3.655,-1.264 -3.49282,3.70883 -6.83197,7.56983 -6.53699,13.18807 z m -150.08569,-9.9784 7.75507,1.84125 c -4.36323,-5.31976 -4.84607,-5.43455 -7.75513,-1.84125 z"
         id="path15" /><path
         class="cls-4"
         d="m 116.67292,25.97556 c -1.13619,3.82663 1.17772,5.80269 4.20727,6.76349 2.98817,0.94768 3.39488,2.86043 2.79371,5.2746 a 96.75911,96.75911 0 0 1 -3.27184,11.00707 c -0.97577,2.56814 -3.40488,2.73124 -5.84934,2.29044 -4.94626,-0.89194 -9.40812,-2.73352 -12.9179,-6.47947 -0.5088,-0.543 -1.07205,-1.393 -1.83512,-0.77259 -0.90017,0.7319 -0.36048,1.62016 0.22216,2.41195 1.27,1.72583 3.29023,2.34345 5.08345,3.00942 3.32318,1.23418 4.44718,3.77518 4.44469,6.80235 -0.003,3.56474 -0.78612,7.10548 -3.63147,9.62151 -1.90267,1.68246 -3.73081,-0.71687 -6.13139,-0.42366 1.49928,3.16256 1.59555,6.4665 1.08087,10.32134 2.29269,-4.72033 5.54069,-6.64809 10.43479,-5.19621 4.34969,1.29038 7.10134,3.86838 7.15914,9.19551 5.97552,-8.784 11.89861,-9.40162 18.73125,-2.29877 0.64891,-3.08146 1.05079,-6.17395 4.117,-7.76657 0.50122,-0.26035 0.888,-0.98465 -0.23919,-1.01222 a 3.73648,3.73648 0 0 0 -1.261,0.46465 c 5.189,-5.16967 8.55368,1.45807 13.02487,2.00865 0.153,-2.43682 -1.73384,-5.06257 0.52595,-7.29525 l -0.11446,-0.10833 c 0.37951,1.71226 -0.888,3.84349 0.82094,5.12738 1.29491,0.97284 1.74416,-1.36573 2.97978,-1.35675 l -0.0869,-0.06091 c -0.42326,3.33008 -2.7565,5.37816 -5.23821,7.05532 -14.66823,9.91288 -43.40664,9.18533 -57.63772,-1.34921 -0.714,-0.52851 -1.60114,-0.93379 -1.7373,-1.98442 1.5041,0.71853 3.03692,1.38993 4.50992,2.17374 1.41521,0.75307 2.48491,0.37707 2.89712,-1.04757 1.11016,-3.83679 -1.36492,-6.01253 -4.0231,-7.99248 -1.7355,-1.29268 -3.75819,-1.98479 -5.3598,-0.05834 -2.28768,2.75163 0.51529,4.35755 1.7882,6.27028 a 4.96619,4.96619 0 0 1 0.35964,0.8283 c -3.86891,0.42383 -4.82895,-0.93164 -4.12241,-4.59433 1.04626,-5.42365 5.707,-8.88776 7.13373,-14.03821 -0.28857,2.21336 -1.89738,4.586 -0.55135,6.60348 2.089,3.13106 5.367,5.8747 9.03433,5.50835 3.50785,-0.35044 3.47834,-4.47948 4.03931,-7.437 0.53142,-2.80174 0.0751,-5.01544 -3.026,-6.23227 a 20.94668,20.94668 0 0 1 -5.01266,-3.19346 c -1.3379,-1.04641 -2.20816,-0.495 -3.14724,0.43158 1.04373,-3.672 1.6724,-7.56522 5.26513,-9.87856 -2.17941,2.99976 -0.69939,4.82382 1.75839,6.829 3.11083,2.538 6.75889,3.54322 10.4408,4.48121 2.93059,0.74658 5.06967,-0.37837 5.86421,-3.54685 0.74243,-2.9607 1.5628,-5.903 2.41507,-8.83422 0.22489,-0.77347 0.51536,-1.8754 -0.1201,-2.10317 -3.84826,-1.37933 -6.14261,-5.10179 -9.971,-6.45291 1.382,-0.98582 2.76391,-1.97164 4.14648,-2.94215 5.9e-4,0.01536 0.007,-0.02374 0.007,-0.02374 z m -8.21777,45.30538 c -2.2237,0.20392 -4.27161,1.02537 -4.76272,3.44586 -0.53252,2.62457 1.85164,2.69734 3.51419,3.23779 a 22.1129,22.1129 0 0 0 4.39869,1.215 c 1.67344,0.17558 3.93472,1.83885 4.9651,-0.22066 1.18127,-2.36115 -0.62754,-4.35121 -2.49131,-5.80648 a 9.6,9.6 0 0 0 -5.62395,-1.87151 z m 17.16837,9.16247 a 14.52971,14.52971 0 0 0 3.66931,-0.4622 c 1.75271,-0.69382 5.15641,0.87457 5.06094,-1.98711 -0.0852,-2.55454 -3.14763,-3.436 -5.68625,-3.81433 A 6.572,6.572 0 0 0 124.62227,74.8 c -1.70019,0.8762 -3.4515,2.14344 -3.17246,4.13293 0.35104,2.5029 2.76048,0.97181 4.17371,1.51048 z m 19.593,-10.37652 c -2.22764,-0.11367 -4.32785,1.19156 -6.0287,3.34245 a 3.28657,3.28657 0 0 0 -0.59478,3.41939 c 0.67287,1.53712 2.12608,0.82576 3.18793,0.5408 a 33.74191,33.74191 0 0 0 7.63273,-2.89806 c 2.53515,-1.39523 1.53512,-2.38645 -0.12343,-3.503 a 6.94644,6.94644 0 0 0 -4.07375,-0.90158 z"
         id="path16" /><path
         class="cls-4"
         d="m 153.36079,63.9018 c 0.39262,-2.06675 0.92166,-3.77383 -2.4679,-3.97368 -4.20587,-0.248 -3.74675,-4.526 -5.049,-7.237 0.52958,-0.30992 1.98106,0.34685 1.583,-0.72988 -0.9073,-2.45436 0.73108,-3.81761 1.76662,-5.47834 -2.27425,2.973 -0.18918,5.81389 0.36111,8.63688 0.39934,2.04869 1.47621,4.60763 3.98063,3.90012 2.84022,-0.80237 0.85164,-3.23125 0.62878,-4.994 -0.0567,-0.4488 -0.0638,-0.90387 -0.0937,-1.35607 0.69215,1.41762 2.12751,1.41127 3.37637,1.76225 l -0.002,-0.01333 c -0.76794,2.04023 -0.16825,3.8323 0.71567,5.73281 1.21513,2.61263 1.52211,5.28377 -1.19979,7.3516 l 0.0869,0.061 c 0.125,-0.89506 0.229,-1.79372 0.38,-2.68439 0.2027,-1.19519 0.77978,-2.7073 -0.32492,-3.427 -1.50332,-0.97946 -1.86,0.99174 -2.7431,1.64543 -0.35046,0.25941 -0.74065,0.46515 -1.11275,0.69533 z"
         id="path17" /><path
         class="cls-4"
         d="m 140.34147,29.6862 c -1.54173,0.0255 -2.77243,-1.04287 -4.68788,0.03944 -7.46063,4.21558 -13.30282,2.88957 -18.97715,-3.73534 -0.004,-0.01474 -0.0102,0.02436 -0.0108,0.0091 0.8134,0.79184 1.99455,-0.31372 2.90513,0.70351 a 11.47664,11.47664 0 0 0 13.65251,2.94 c 0.80714,-0.38984 1.86683,-0.68432 1.78285,-1.77462 -0.0931,-1.20859 -1.31859,-0.99783 -2.12955,-1.29492 -3.46261,-1.26855 -7.18492,0.03072 -10.633,-1.14127 6.55239,-0.84135 12.94441,-0.9127 18.15648,4.19111 z"
         id="path18" /><path
         class="cls-4"
         d="m 125.88221,40.13682 c -0.28922,1.65891 -0.48429,3.34095 -0.88539,4.97235 -1.17735,4.78879 -0.49041,5.77011 4.32026,6.08068 4.55144,0.29383 8.73461,-1.09648 13.29742,-3.14445 -3.5198,3.672 -13.5007,5.58045 -17.11185,3.65888 A 2.56086,2.56086 0 0 1 123.87,49.16187 c 0.33847,-3.05267 -0.51351,-6.40582 2.08732,-8.93319 z"
         id="path19" /><path
         class="cls-4"
         d="m 110.67723,97.33294 c -4.29562,0.63934 -6.55857,-0.73261 -6.24129,-4.745 0.35067,-4.43449 -1.303,-7.04629 -4.91316,-9.28466 a 17.20859,17.20859 0 0 1 -6.64015,-7.56737 c 3.86524,3.47529 7.45972,7.25023 11.73473,10.255 1.64326,1.155 0.53242,3.17135 0.55629,4.78038 0.0554,3.73435 1.59238,6.10585 5.48776,6.58931 a 0.05654,0.05654 0 0 0 0.0158,-0.02766 z"
         id="path20" /><path
         class="cls-4"
         d="m 146.00085,52.8561 c -4.70565,-1.845 -11.70794,2.30468 -11.89694,7.07054 -0.0784,1.97694 0.0412,3.96832 -0.1441,5.93287 -0.272,2.88437 1.01654,3.89486 3.726,3.4962 -3.05255,1.997 -4.53955,0.89988 -4.656,-2.476 a 74.89786,74.89786 0 0 1 0.041,-8.67685 c 0.44464,-5.426 6.02322,-4.76741 9.04045,-7.16 1.40963,-1.11786 3.22729,-0.196 3.88959,1.81324 z"
         id="path21" /><path
         class="cls-4"
         d="m 120.97864,96.32339 c 0.0439,-0.60908 0.10759,-1.21749 0.12846,-1.82736 0.201,-5.87316 0.61214,-6.26837 6.44558,-5.58283 3.00836,0.35354 5.9119,1.13214 9.05123,0.49626 5.16907,-1.047 5.5719,-0.53347 5.53149,5.0639 l 0.14617,-0.17782 c -0.93455,-3.782 -2.86688,-5.56018 -6.98553,-3.93115 -1.17545,0.46492 -2.71421,0.07567 -4.08008,-0.01584 -7.81879,-0.52388 -7.81815,-0.53349 -10.34936,5.81978 z"
         id="path22" /><path
         class="cls-4"
         d="m 125.95731,40.22868 c -1.06164,-3.98241 0.12594,-6.15844 4.583,-6.28538 2.08974,-0.05952 4.31823,-0.2997 6.09735,-1.75031 1.172,-0.95559 2.20057,-0.8 3.33675,0.56516 -3.88714,0.70923 -7.136,2.81726 -11.16131,2.73223 -2.56589,-0.0542 -2.0252,3.00538 -2.943,4.63339 0.0121,0.01305 0.0872,0.10491 0.0872,0.10491 z"
         id="path23" /><path
         class="cls-4"
         d="m 140.4,29.6232 c 4.6751,2.08689 6.78843,6.24763 8.37975,10.834 -2.35709,-3.96435 -5.68537,-7.13193 -8.43795,-10.77136 z"
         id="path24" /><path
         class="cls-4"
         d="m 119.60224,71.17666 c -7.62335,-0.60647 -9.751,-2.58341 -9.30507,-7.97408 0.16204,5.41523 4.66283,6.16091 9.30507,7.97408 z"
         id="path25" /><path
         class="cls-4"
         d="m 157.44674,54.432 a 18.1574,18.1574 0 0 0 -1.70841,-6.543 c -0.97087,-1.99665 -2.46219,-3.87495 -1.941,-6.39348 1.294,4.27917 5.06029,7.813 3.64866,12.91592 a 0.06818,0.06818 0 0 0 7.5e-4,0.02056 z"
         id="path26" /><path
         class="cls-4"
         d="m 141.96407,299.46466 a 85.338,85.338 0 0 0 0.0631,9.21762 c 0.4962,4.54294 -1.72339,7.37313 -5.65645,8.26686 -14.36369,3.26386 -28.57147,3.81636 -41.96343,-3.94942 -5.27622,-3.05961 -6.84569,-7.7021 -5.44552,-13.27626 1.83118,-7.29007 3.98594,-14.5042 6.19467,-21.69163 0.92454,-3.0085 3.60127,-3.67729 6.36681,-3.32359 8.37023,1.07049 16.73874,2.18479 25.06446,3.54755 a 10.19372,10.19372 0 0 0 4.4223,-0.5028 c 5.38472,-1.3338 9.89692,1.50016 10.9256,6.9759 0.917,4.88119 0.43441,9.81782 0.0285,14.73577 z m -2.29721,-1.3629 c 0,-4.15758 -0.2795,-7.25094 0.0608,-10.27452 0.62237,-5.52985 -1.52462,-7.7772 -6.95936,-6.422 a 16.55573,16.55573 0 0 1 -7.26141,0.26393 c -7.82533,-1.48544 -15.6419,-3.01771 -23.4736,-4.46851 -2.33015,-0.43164 -4.53928,-0.697 -5.35039,2.57342 q -2.53953,10.23964 -5.498,20.37372 c -0.9912,3.4095 -0.14766,5.891 2.62063,8.05159 12.89546,10.06461 27.09246,11.16481 42.16651,6.22775 3.74377,-1.22614 4.40371,-4.34867 4.23086,-7.78537 -0.16144,-3.20996 -0.40041,-6.41599 -0.53605,-8.54001 z"
         id="path27" /><path
         class="cls-4"
         d="m 139.69281,150.92248 c -0.61029,4.03292 -1.29931,8.57688 -1.9851,13.12136 -0.379,2.51174 -2.45812,3.258 -4.36467,3.36433 -8.289,0.46235 -16.51054,0.367 -23.90793,-4.37231 -4.14091,-2.653 -5.23858,-6.159 -3.51179,-10.62078 1.38121,-3.56893 2.99719,-7.04927 4.31088,-10.64136 1.05144,-2.875 2.90269,-3.6682 5.73424,-2.96554 6.34191,1.57376 12.57566,3.43932 19.22609,3.79789 4.42935,0.2388 4.4499,4.32298 4.49828,8.31641 z"
         id="path28" /><path
         class="cls-4"
         d="m 170.60435,73.23227 -5e-5,0.002 L 162.52,38.12 a 6.31117,6.31117 0 0 0 -3.38391,-4.20978 l -32.7228,-15.62341 a 6.30546,6.30546 0 0 0 -5.43124,0 L 88.2663,33.91834 a 6.30942,6.30942 0 0 0 -3.38493,4.20978 l -8.07115,35.11321 a 6.17771,6.17771 0 0 0 -0.002,2.69547 6.26456,6.26456 0 0 0 0.22815,0.79749 6.08,6.08 0 0 0 0.62287,1.265 c 0.11106,0.16955 0.22815,0.33415 0.35537,0.49362 l 22.64568,28.15569 c 0.0989,0.12215 0.20794,0.23423 0.316,0.34833 a 6.23008,6.23008 0 0 0 1.19428,0.98933 6.46028,6.46028 0 0 0 1.78991,0.77834 6.17,6.17 0 0 0 1.591,0.21909 h 0.35233 l 35.9634,-0.008 a 6.02864,6.02864 0 0 0 0.65416,-0.0383 6.25042,6.25042 0 0 0 0.92268,-0.17569 6.43677,6.43677 0 0 0 0.64111,-0.2049 c 0.16352,-0.0626 0.327,-0.12519 0.48455,-0.2009 a 6.47571,6.47571 0 0 0 0.68648,-0.3816 6.17237,6.17237 0 0 0 1.50214,-1.32956 l 0.69059,-0.85811 21.94711,-27.30264 a 6.11826,6.11826 0 0 0 0.97824,-1.75658 6.34469,6.34469 0 0 0 0.23214,-0.79951 6.16331,6.16331 0 0 0 -0.002,-2.69549 z M 89.3,73.03053 a 1.9574,1.9574 0 0 1 0.104,-1.47865 c 0.07208,0.72373 0.1674,1.43972 0.27739,2.15076 A 1.95877,1.95877 0 0 1 89.3,73.03053 Z M 123.29886,29.689 a 1.47556,1.47556 0 0 1 0.72016,-0.01931 c -0.24014,0.006 -0.48122,0.0083 -0.72016,0.01931 z"
         id="path29" /><path
         class="cls-5"
         d="m 155.12012,69.03069 c -0.16388,-0.03752 -0.39688,-0.10169 -0.55682,-0.13131 a 16.171,16.171 0 0 0 -1.8363,-0.14806 17.90979,17.90979 0 0 1 -3.43468,-0.56372 2.15328,2.15328 0 0 1 -0.82633,-0.83127 l -0.773,-0.2251 A 24.88388,24.88388 0 0 0 143.70446,49.8956 c 0.19745,-0.17968 0.57261,-0.5114 0.6782,-0.60914 a 1.5144,1.5144 0 0 1 0.35936,-1.085 17.92192,17.92192 0 0 1 2.84825,-2.00115 15.92661,15.92661 0 0 0 1.59146,-0.928 c 0.1234,-0.09181 0.29223,-0.237 0.42156,-0.34061 a 1.92515,1.92515 0 1 0 -2.38518,-2.99438 c -0.13032,0.10268 -0.308,0.23793 -0.42453,0.33863 a 15.88452,15.88452 0 0 0 -1.26564,1.33873 17.93856,17.93856 0 0 1 -2.58169,2.33585 2.12849,2.12849 0 0 1 -1.162,0.12638 l -0.72859,0.52028 A 25.09823,25.09823 0 0 0 125.15879,38.9163 c -0.0178,-0.2547 -0.0395,-0.71576 -0.0464,-0.855 a 1.51743,1.51743 0 0 1 -0.62493,-0.95764 17.93936,17.93936 0 0 1 0.2172,-3.47417 15.93126,15.93126 0 0 0 0.26063,-1.82051 c 0.006,-0.154 -0.003,-0.37813 -0.003,-0.545 a 1.92516,1.92516 0 1 0 -3.83057,0.002 c 0,0.01776 0.004,0.03554 0.005,0.05331 -0.002,0.15894 -0.01,0.35146 -0.005,0.49067 a 16.09649,16.09649 0 0 0 0.26162,1.82149 17.91294,17.91294 0 0 1 0.21325,3.47318 2.088,2.088 0 0 1 -0.622,0.99022 l -0.0454,0.81055 a 24.98,24.98 0 0 0 -3.46232,0.53213 24.63512,24.63512 0 0 0 -12.51255,7.14875 q -0.34949,-0.2409 -0.69206,-0.49067 a 1.5125,1.5125 0 0 1 -1.13732,-0.11057 17.871,17.871 0 0 1 -2.5817,-2.33291 16.00143,16.00143 0 0 0 -1.26073,-1.33872 C 99.176,42.2137 98.99737,42.07748 98.86702,41.97379 a 2.28249,2.28249 0 0 0 -1.33481,-0.50349 1.84514,1.84514 0 0 0 -1.5263,0.67528 2.02981,2.02981 0 0 0 0.47091,2.82359 l 0.02961,0.02073 c 0.12539,0.10268 0.2794,0.234 0.3959,0.31889 a 15.997,15.997 0 0 0 1.58755,0.929 17.86358,17.86358 0 0 1 2.84824,2.00221 2.1276,2.1276 0 0 1 0.385,1.10475 l 0.61309,0.54792 a 24.78218,24.78218 0 0 0 -3.90758,17.27707 l -0.80166,0.233 a 2.648,2.648 0 0 1 -0.82338,0.8293 17.87439,17.87439 0 0 1 -3.43271,0.5657 16.003,16.003 0 0 0 -1.83729,0.14806 c -0.1471,0.02665 -0.35146,0.079 -0.5114,0.11844 l -0.01678,0.004 -0.02765,0.0079 a 1.9222,1.9222 0 1 0 0.851,3.73184 l 0.02866,-0.0039 c 0.01284,-0.003 0.0237,-0.0099 0.03653,-0.01184 0.158,-0.03555 0.3564,-0.074 0.49561,-0.11157 a 16.14865,16.14865 0 0 0 1.71784,-0.65849 17.93508,17.93508 0 0 1 3.33891,-0.98232 2.12372,2.12372 0 0 1 1.1008,0.389 l 0.83522,-0.14314 a 24.92234,24.92234 0 0 0 11.04445,13.78908 l -0.34851,0.83523 a 1.9003,1.9003 0 0 1 0.1708,1.083 18.70714,18.70714 0 0 1 -1.73363,3.11486 15.96565,15.96565 0 0 0 -1.02675,1.53023 c -0.076,0.14415 -0.17277,0.3653 -0.24583,0.51635 a 1.92318,1.92318 0 1 0 3.45838,1.64083 l 0.003,-0.004 v -0.004 c 0.073,-0.15006 0.17575,-0.34652 0.23689,-0.48671 a 15.83272,15.83272 0 0 0 0.55287,-1.75535 13.3946,13.3946 0 0 1 1.48286,-3.44064 1.55583,1.55583 0 0 1 0.82535,-0.4028 l 0.43439,-0.78486 a 24.78417,24.78417 0 0 0 17.673,0.04441 c 0.12142,0.2172 0.34849,0.63186 0.40872,0.73647 a 1.51349,1.51349 0 0 1 0.97738,0.59433 17.83686,17.83686 0 0 1 1.315,3.22045 16.01133,16.01133 0 0 0 0.55582,1.75535 c 0.0622,0.14117 0.1639,0.34061 0.237,0.49067 a 1.92417,1.92417 0 1 0 3.46232,-1.63688 c -0.073,-0.151 -0.17376,-0.37219 -0.24978,-0.51535 a 15.914,15.914 0 0 0 -1.02674,-1.5263 17.86549,17.86549 0 0 1 -1.698,-3.04066 1.5037,1.5037 0 0 1 0.1471,-1.12943 6.58677,6.58677 0 0 1 -0.31887,-0.773 24.92146,24.92146 0 0 0 11.03945,-13.88782 c 0.2478,0.03949 0.67924,0.11452 0.81942,0.14316 a 1.51441,1.51441 0 0 1 1.07117,-0.39787 17.91467,17.91467 0 0 1 3.33991,0.98232 15.944,15.944 0 0 0 1.71882,0.66344 c 0.13822,0.03654 0.33566,0.07108 0.49461,0.10565 0.0128,0.0039 0.0247,0.0099 0.0375,0.01282 l 0.0276,0.0039 a 1.92219,1.92219 0 1 0 0.852,-3.73184 z m -18.19722,-19.5063 -8.1844,5.80214 -0.0287,-0.01284 a 1.68959,1.68959 0 0 1 -2.68337,-1.28838 l -0.009,-0.0039 -0.56866,-10.0306 a 19.89834,19.89834 0 0 1 11.47398,5.53362 z m -15.418,10.99413 h 3.08024 l 1.91529,2.39411 -0.68713,2.98645 -2.7663,1.33082 -2.77428,-1.33377 -0.68812,-2.98745 z m -2.89861,-16.17625 a 20.27422,20.27422 0 0 1 2.04363,-0.35152 l -0.56964,10.04543 -0.0415,0.01974 a 1.68821,1.68821 0 0 1 -2.67942,1.2943 l -0.0158,0.0089 -8.23768,-5.84063 a 19.72545,19.72545 0 0 1 9.50037,-5.17621 z m -12.48786,8.93073 7.52095,6.72621 -0.008,0.04146 a 1.68822,1.68822 0 0 1 -0.66344,2.90156 l -0.008,0.03258 -9.6406,2.7821 A 19.71857,19.71857 0 0 1 106.11843,53.273 Z m 10.07,17.86941 -3.83051,9.25559 a 19.8282,19.8282 0 0 1 -7.95732,-9.95949 l 9.88444,-1.6783 0.0168,0.02173 a 1.65772,1.65772 0 0 1 0.33171,-0.02961 1.68822,1.68822 0 0 1 1.52631,2.35266 z m 11.30611,11.90341 A 19.8016,19.8016 0 0 1 116.688,82.49 l 4.86128,-8.79057 h 0.008 a 1.6902,1.6902 0 0 1 2.97561,-0.003 h 0.0365 l 4.87312,8.80538 q -0.94871,0.31697 -1.94783,0.54403 z m 6.28091,-2.61032 -3.87006,-9.35034 0.0118,-0.01679 a 1.69019,1.69019 0 0 1 0.81843,-2.18875 1.6724,1.6724 0 0 1 0.64668,-0.16784 1.63,1.63 0 0 1 0.388,0.02866 l 0.0168,-0.02073 9.97238,1.68529 a 19.7531,19.7531 0 0 1 -7.984,10.03052 z m 9.03155,-14.71115 -9.68892,-2.791 -0.009,-0.04049 a 1.69018,1.69018 0 0 1 -0.66245,-2.90254 l -0.004,-0.01974 7.47948,-6.69358 a 20.09267,20.09267 0 0 1 2.88472,12.44735 z"
         id="path30" /><path
         class="cls-6"
         d="m 235.38715,253.9947 a 4.11289,4.11289 0 0 1 1.08285,-0.46111 c 2.85967,-0.36239 5.20136,-1.4017 6.76181,-4.06969 0.96381,-1.64787 2.79371,-1.56165 4.41444,-1.02586 3.05847,1.0111 5.151,2.95445 5.76125,6.29054 0.57555,3.14646 -0.849,5.2266 -3.2753,6.97233 -2.50621,1.80322 -2.61061,3.69089 -0.51724,6.01825 3.92428,4.3629 11.268,5.95755 16.54109,3.33311 10.6116,-5.28148 15.91224,-14.46541 18.29539,-25.63838 a 20.63963,20.63963 0 0 0 0.35436,-5.88159 c -0.50359,-6.644 -3.6573,-12.07367 -7.537,-17.19751 A 84.89592,84.89592 0 0 1 268.55,208.40708 c -4.41222,-9.00816 -11.37443,-15.32789 -21.43126,-17.33105 -12.71861,-2.53333 -24.23962,0.31026 -34.00482,9.01384 -7.10263,6.33048 -11.48554,14.46037 -14.42392,23.40518 -3.60547,10.97557 -2.60921,21.49133 3.35717,31.45145 3.67234,6.13053 5.1244,12.545 3.59453,19.72175 -1.19394,5.60084 -0.69788,11.10582 3.295,15.80884 a 6.77373,6.77373 0 0 1 1.32354,5.60692 c -2.11742,13.33536 -8.64346,23.80126 -20.49018,30.517 -27.51938,15.6004 -57.24808,19.22125 -88.176,15.70905 a 114.85772,114.85772 0 0 1 -55.96956,-21.81889 5.6405,5.6405 0 0 0 -2.64184,-1.44953 4.07684,4.07684 0 0 0 1.12191,2.41552 109.7653,109.7653 0 0 0 32.19243,31.42633 c 4.13989,2.61884 4.71252,3.92553 3.53048,8.7234 -2.61308,10.60611 2.53142,19.11261 13.19952,21.4905 5.78421,1.28927 11.62286,0.76121 17.37551,-0.40726 4.87121,-0.98939 6.53779,-3.02648 7.28757,-8.01614 0.41086,-2.7343 0.2637,-5.48356 0.49968,-8.21519 0.457,-5.28982 3.2075,-7.47915 8.461,-6.80782 1.276,0.163 2.54254,0.39992 3.81306,0.60514 10.932,1.76579 21.84188,2.15921 32.72628,-0.40194 3.89915,-0.91754 5.28226,0.0156 6.192,3.99955 0.7828,3.42792 1.38587,6.90479 2.33993,10.28334 0.90887,3.21853 2.80259,5.80785 6.37553,6.3575 9.52075,1.46471 18.84986,0.72736 27.77884,-3.07663 7.56892,-3.22455 10.20591,-9.545 7.17515,-17.25482 -1.94519,-4.94828 -4.18129,-9.78228 -6.29131,-14.66563 -0.51134,-1.18338 -1.213,-2.39024 -0.604,-3.68822 1.45342,-3.098 2.43339,-6.44508 4.63356,-9.1602 a 49.196,49.196 0 0 0 9.28965,-19.61 q 2.62489,-10.62014 5.50749,-21.1762 c 2.119,-7.81386 7.15612,-12.47109 15.219,-13.82862 2.87364,-0.48381 5.69474,-1.27273 8.56033,-1.8137 1.97994,-0.37379 2.50453,-0.97915 1.12718,-2.80518 -1.70046,-2.2544 -3.15482,-4.69907 -4.65214,-7.101 -2.651,-4.25274 -5.58963,-8.24205 -9.75185,-11.17171 a 1.2839,1.2839 0 0 1 -0.70231,-1.14796 z m -171.62744,49.895 c 0,0.33647 -0.06851,0.55107 0.0098,0.66231 4.7402,6.73375 6.86088,13.79864 2.91412,21.71393 -0.674,1.35166 0.25049,2.06643 1.42016,2.49945 1.24707,0.46165 1.96734,-0.096 2.349,-1.259 0.18723,-0.57046 0.34663,-1.15027 0.54127,-1.71808 2.67653,-7.808 7.96772,-11.204 16.1806,-10.38965 0.93918,0.0931 1.88031,0.17046 2.81692,0.28481 12.69908,1.55037 21.12436,9.5745 21.14864,21.14248 0.002,0.8633 0.0655,1.91086 1.14839,2.023 1.223,0.12658 1.13319,-1.03221 1.32549,-1.8254 2.35031,-9.69446 7.53035,-14.67609 16.77648,-16.01495 a 30.33754,30.33754 0 0 1 7.96155,-0.0109 c 8.031,0.96207 14.46984,4.20849 17.45821,12.33013 0.14495,0.39389 0.33414,0.79984 0.95719,0.7732 0.861,-0.87222 0.22525,-1.9058 0.18048,-2.86107 -0.237,-5.057 0.75149,-9.73134 4.14853,-13.67922 8.61595,-10.01309 21.68,-10.612 31.05648,-1.426 0.24521,0.24023 0.4803,0.49151 0.735,0.72112 0.37232,0.33568 0.72886,0.86331 1.29269,0.6403 0.69387,-0.27448 0.65853,-0.99224 0.554,-1.56651 a 59.81946,59.81946 0 0 0 -1.24731,-6.04014 17.20981,17.20981 0 0 1 0.31633,-10.6246 47.30691,47.30691 0 0 1 3.00384,-6.82549 c 0.30548,-0.58014 0.94307,-1.19141 0.49617,-1.88129 -0.4463,-0.689 -1.24393,-0.35052 -1.90589,-0.30349 -4.731,0.33609 -6.27325,-0.51649 -8.31138,-4.78576 -2.183,-4.57267 -3.90842,-9.33638 -5.80081,-14.03181 -2.80474,-6.95918 -2.83508,-13.20829 3.70376,-18.24033 1.67079,-1.28578 1.79759,-2.96458 0.77032,-4.8199 -1.16335,-2.10108 -2.152,-4.29925 -3.32412,-6.395 -5.79639,-10.36406 -12.70086,-19.78605 -22.73357,-26.52667 -3.19758,-2.14835 -4.75961,-2.32175 -7.43546,-0.0882 -10.7348,8.96058 -28.48568,8.302 -39.83481,1.60384 a 8.41418,8.41418 0 0 1 -3.66274,-4.16734 c -0.92116,-2.24823 -1.91165,-2.50729 -3.90183,-1.22017 -2.01935,1.306 -2.1968,2.26881 -0.63315,4.13974 3.70341,4.43115 8.53888,7.0342 13.97157,8.76673 4.23124,1.34935 5.59188,3.088 5.13361,6.83878 a 126.48084,126.48084 0 0 1 -8.989,32.92323 c -1.92334,4.6613 -5.66141,6.53328 -10.602,5.94773 -14.5579,-1.72539 -27.78712,-6.26715 -37.4829,-18.08 -0.96613,-1.17708 -1.83221,-1.0211 -2.8113,-0.11671 -1.55365,1.43512 -1.44813,2.87377 0.32763,4.92313 3.936,4.54239 9.39095,6.54528 14.73853,8.61565 5.925,2.29389 8.88078,6.63927 9.89745,12.70118 1.39434,8.31369 -1.03806,15.8086 -4.80437,22.99688 -2.98721,5.70134 -5.20292,6.58452 -11.49708,4.97063 -1.49433,-0.38315 -2.95464,-0.89737 -4.43692,-1.32959 a 12.61827,12.61827 0 0 0 -3.91957,-0.99099 z m 38.40154,-38.12213 c 6.15615,-0.0465 9.1746,-1.88088 10.31743,-6.12383 2.34022,-8.68841 4.45223,-17.43806 6.74335,-26.14008 0.647,-2.45739 -0.222,-3.95816 -2.39484,-4.95888 -3.11367,-1.434 -6.23824,-2.84706 -9.3183,-4.35071 a 14.686,14.686 0 0 1 -6.8898,-6.32235 c -2.08436,-3.95092 -3.16388,-4.24952 -6.97347,-1.70075 A 82.6517,82.6517 0 0 0 68.0642,242.87188 c -1.83569,3.09464 -1.75727,4.85339 0.69853,7.39587 9.40867,9.74068 21.4077,13.79716 33.39852,15.49985 z m -17.06383,11.0678 c 0.09539,-2.74379 -2.3538,-4.0141 -4.78765,-5.09629 a 85.67523,85.67523 0 0 1 -16.58868,-9.73226 c -3.526,-2.63831 -4.51786,-2.31579 -5.836,2.02868 -2.13871,7.04911 -4.096,14.15306 -6.19866,21.21341 a 5.00713,5.00713 0 0 0 1.11939,4.98088 c 4.24053,5.19575 9.81729,8.47051 15.80879,11.15555 7.85783,3.52138 9.44558,2.87569 12.9511,-5.10061 2.64442,-6.01697 2.69659,-12.50828 3.53171,-19.44936 z m 2.41583,42.45543 c -6.11148,0.007 -9.60661,1.58263 -11.79408,5.32749 -2.47713,4.24071 -1.55307,6.94937 3.02292,8.5697 7.95345,2.81623 16.22816,4.34214 24.48089,5.929 2.23888,0.43049 3.41074,-0.56522 3.62032,-2.86228 a 11.54769,11.54769 0 0 0 -1.745,-7.625 C 100.94,322.2939 95.0001,319.3375 87.51325,319.2908 Z M 47.77843,299.86909 c -6.10758,0.0178 -8.97463,4.08687 -7.06668,9.33706 a 16.22238,16.22238 0 0 0 2.56288,4.43191 c 3.78118,4.83288 9.177,7.35316 14.47589,9.95421 4.24927,2.0858 7.2723,0.27528 7.69814,-4.445 a 8.014,8.014 0 0 0 -0.18989,-2.79938 C 63.007,308.20848 57.721,302.92107 49.811,300.18519 a 9.00353,9.00353 0 0 0 -2.03257,-0.3161 z m 112.28278,29.52567 c -0.0892,3.287 0.50676,3.86179 3.71973,3.20574 a 76.34174,76.34174 0 0 0 24.55037,-9.4847 c 2.79434,-1.69591 2.92129,-2.67856 0.6126,-4.87369 -3.92549,-3.73244 -8.76442,-4.4094 -13.87077,-3.90181 -8.10527,0.8057 -14.80903,7.57997 -15.01193,15.05446 z m -34.278,10.05623 0.0135,0.12856 c 5.45781,-0.43674 10.91715,-0.85555 16.37252,-1.32083 1.7041,-0.14532 3.40723,-0.35807 5.09385,-0.641 4.08231,-0.68485 4.63842,-2.07707 2.24422,-5.46573 -5.18,-7.33165 -17.25486,-9.40586 -25.25257,-4.33179 a 14.06536,14.06536 0 0 0 -6.036,7.42807 c -0.92831,2.72055 0.0941,4.13351 2.94113,4.19665 1.54036,0.0341 3.08215,0.006 4.62331,0.006 z m 3.54447,-121.67971 a 42.07064,42.07064 0 0 0 12.57956,-1.55694 17.66027,17.66027 0 0 0 6.90619,-3.28946 c 1.68988,-1.41711 1.51518,-2.64708 -0.50506,-3.38632 -10.66189,-3.9014 -21.472,-3.41319 -32.33174,-0.98751 a 9.23351,9.23351 0 0 0 -1.67986,0.63441 c -2.36776,1.04751 -2.502,1.72046 -0.815,3.78876 a 11.28019,11.28019 0 0 0 5.83914,3.54008 30.38281,30.38281 0 0 0 10.00672,1.25698 z m 70.60305,65.092 a 5.85153,5.85153 0 0 0 -0.89515,-3.03074 166.04119,166.04119 0 0 1 -7.54138,-16.63664 c -0.64225,-1.68311 -1.24835,-3.38184 -1.95258,-5.03873 -0.3857,-0.90747 -0.97019,-1.60783 -2.18943,-1.22512 -2.56811,0.80615 -4.9185,4.78454 -4.26047,7.39813 0.90062,3.57708 1.8217,7.14983 2.79916,10.70653 a 22.22188,22.22188 0 0 0 6.19785,10.7948 c 1.05067,0.97129 2.21145,2.03835 3.60676,1.17146 1.765,-1.09663 3.74341,-2.15915 4.23519,-4.13974 z m -68.592,-79.5552 a 101.82426,101.82426 0 0 1 16.21215,2.57009 c 0.98064,0.23462 2.2189,0.87029 2.64111,-0.52714 0.67921,-2.24793 -0.28645,-4.42633 -1.053,-6.46245 -0.52818,-1.40292 -2.11593,-0.64689 -3.25956,-0.60315 a 40.81311,40.81311 0 0 1 -7.45161,-0.22257 c -4.07539,-0.59105 -8.14554,-1.2412 -12.23722,-1.6904 -4.07848,-0.44776 -5.20192,0.72261 -5.33689,4.84789 -0.0663,2.02642 0.76687,2.85882 2.74242,2.69329 2.47811,-0.20764 4.95851,-0.38915 7.74253,-0.60564 z m 74.84041,92.41042 a 21.3597,21.3597 0 0 0 -0.363,-2.71086 c -0.55725,-2.345 -1.54592,-2.62422 -3.32644,-0.91563 a 22.23949,22.23949 0 0 0 -5.12269,6.99685 14.84721,14.84721 0 0 0 -0.56814,10.5346 c 0.74786,2.50863 2.23431,2.87385 3.7836,0.98874 a 23.23883,23.23883 0 0 0 5.5966,-14.89375 z"
         id="path31"
         style="fill:url(#linear-gradient-3)" /><path
         class="cls-4"
         d="m 250.20611,227.22048 c 0.0233,-3.09681 0.66148,-5.66432 3.14124,-5.535 2.49723,0.13029 3.463,2.71952 3.4243,5.19511 -0.038,2.43281 -0.72548,5.08415 -3.57718,4.88756 -2.83456,-0.19534 -3.03734,-2.94244 -2.98836,-4.54767 z"
         id="path32" /><path
         class="cls-4"
         d="m 206.42679,143.73847 a 21.50256,21.50256 0 0 0 -5.27548,-8.49976 c 0.65791,-1.55885 2.52438,-0.94542 3.37083,-2.13126 1.97341,-2.7646 4.07084,-1.6814 5.63749,0.31875 1.6001,2.04289 1.713,4.499 -0.768,5.97487 -1.81841,1.08172 -2.32478,2.70625 -3.02948,4.39524 -0.0192,0.0186 0.0646,-0.0578 0.0646,-0.0578 z"
         id="path33" /><path
         class="cls-4"
         d="m 213.39279,115.42285 a 2.48784,2.48784 0 0 1 1.93716,2.72328 c 0.0267,1.63618 -0.45435,3.34967 -2.32939,3.366 -1.47327,0.0129 -1.635,-1.57977 -1.5673,-2.843 0.0744,-1.38961 0.22105,-2.79224 1.95953,-3.24628 z"
         id="path34" /><path
         class="cls-4"
         d="m 139.106,271.02119 a 25.38525,25.38525 0 0 1 -11.89986,-1.1914 c -4.52029,-1.53507 -6.30612,-4.281 -5.5613,-8.72731 1.49452,-8.92167 3.0188,-17.839 4.62774,-26.74057 1.1671,-6.45711 2.2293,-7.15143 8.55083,-8.06529 7.21293,-1.04272 14.85833,-0.9957 20.51736,-6.835 1.07975,-1.11415 2.23706,-0.58457 3.32151,0.1546 1.77586,1.21048 3.95676,2.07708 5.27681,3.663 6.04679,7.26493 12.422,14.34729 15.24059,23.73 a 6.69514,6.69514 0 0 1 -1.01322,6.43294 c -7.96827,11.012 -19.36707,15.52254 -32.27006,17.21818 -1.82058,0.23926 -3.67714,0.20481 -6.7904,0.36085 z m -14.92476,-9.82388 c -1.32554,3.77458 2.08045,5.86533 7.08383,6.61878 13.94,2.09929 26.35375,-2.36015 38.26975,-8.96472 6.50825,-3.60726 8.37794,-8.94024 5.17666,-15.65578 a 67.7451,67.7451 0 0 0 -12.89222,-17.83607 c -1.63377,-1.68573 -3.67272,-3.36552 -6.4432,-1.52166 a 32.63258,32.63258 0 0 1 -20.55465,5.47 c -3.12785,-0.19373 -4.23472,1.19758 -5.00081,3.97153 -2.45721,8.89732 -3.88033,17.98195 -5.63936,27.91792 z"
         id="path35" /><path
         class="cls-4"
         d="m 145.85827,294.42047 c 0,-4.149 -0.061,-8.29919 0.0209,-12.44655 0.0569,-2.88236 1.48735,-5.32624 4.14277,-6.13156 6.00519,-1.82115 10.863,-5.69361 16.33024,-8.45247 5.16236,-2.605 9.40671,-1.69776 12.1979,3.36365 3.25584,5.904 6.68818,11.76023 8.70575,18.28676 2.29962,7.43889 0.54083,11.8225 -6.25791,15.77682 -5.11706,2.97619 -10.7354,4.57655 -16.3068,6.306 a 99.74265,99.74265 0 0 0 -10.429,3.66159 c -4.57515,1.99605 -6.89594,0.56318 -7.876,-4.26246 -1.08451,-5.34025 -0.7572,-10.72439 -0.52786,-16.10178 z m 3.16466,0.63767 c 0.16355,5.18867 -0.90833,10.41878 0.32744,15.6 0.58344,2.44616 1.43,2.91411 3.79723,1.78306 a 81.711,81.711 0 0 1 9.07,-3.27632 c 7.24542,-2.45743 14.804,-4.03495 21.20615,-8.6972 2.83071,-2.06137 3.47266,-4.00087 2.46041,-7.35006 -2.47545,-8.19043 -7.61578,-15.06784 -10.7961,-22.89654 -0.97141,-2.39124 -3.23575,-1.46239 -4.83482,-0.84149 a 85.607,85.607 0 0 0 -8.75712,4.10915 c -4.19892,2.2056 -10.0413,3.59934 -12.00345,7.11422 -2.08796,3.74022 -0.46974,9.54936 -0.46974,14.45518 z"
         id="path36" /><path
         class="cls-4"
         d="m 201.63553,169.253 -10e-5,0.003 -13.54827,-58.847 a 10.57663,10.57663 0 0 0 -5.671,-7.055 l -54.8391,-26.18279 a 10.56716,10.56716 0 0 0 -9.10205,0 l -54.82722,26.19645 a 10.57372,10.57372 0 0 0 -5.67269,7.055 l -13.5262,58.84516 a 10.35323,10.35323 0 0 0 -0.0034,4.51726 10.49937,10.49937 0 0 0 0.38235,1.33647 10.189,10.189 0 0 0 1.04384,2.12 c 0.18613,0.28414 0.38235,0.56 0.59555,0.82724 l 37.95119,47.18522 c 0.16575,0.20471 0.34848,0.39254 0.52952,0.58377 a 10.44182,10.44182 0 0 0 2.00146,1.658 10.826,10.826 0 0 0 2.99965,1.30441 10.34093,10.34093 0 0 0 2.66626,0.36716 h 0.59045 l 60.26993,-0.0136 a 10.09617,10.09617 0 0 0 1.09629,-0.0642 10.47485,10.47485 0 0 0 1.54628,-0.29443 10.78722,10.78722 0 0 0 1.07442,-0.34338 c 0.274,-0.10491 0.54809,-0.20981 0.812,-0.33669 a 10.85128,10.85128 0 0 0 1.15045,-0.63952 10.34464,10.34464 0 0 0 2.51739,-2.22815 l 1.15734,-1.43808 36.78051,-45.75567 a 10.25344,10.25344 0 0 0 1.6394,-2.9438 10.63526,10.63526 0 0 0 0.389,-1.33987 10.32883,10.32883 0 0 0 -0.003,-4.51733 z M 122.35775,96.28016 a 2.47326,2.47326 0 0 1 1.20689,-0.03237 c -0.40243,0.0101 -0.80646,0.01399 -1.20689,0.03237 z"
         id="path37" /><path
         class="cls-5"
         d="m 175.686,162.21174 c -0.27464,-0.0629 -0.66511,-0.17042 -0.93315,-0.22006 a 27.1,27.1 0 0 0 -3.0774,-0.24812 30.01432,30.01432 0 0 1 -5.75607,-0.94473 3.60852,3.60852 0 0 1 -1.38482,-1.3931 l -1.29549,-0.37723 a 41.70214,41.70214 0 0 0 -6.68426,-28.88465 c 0.33091,-0.30113 0.95961,-0.857 1.13657,-1.02085 a 2.538,2.538 0 0 1 0.60224,-1.81831 30.03552,30.03552 0 0 1 4.77329,-3.35367 26.68924,26.68924 0 0 0 2.66709,-1.55525 c 0.2068,-0.15387 0.48973,-0.39709 0.70648,-0.57081 a 3.22631,3.22631 0 1 0 -3.99725,-5.01819 c -0.21841,0.17207 -0.51621,0.39874 -0.71146,0.5675 a 26.61993,26.61993 0 0 0 -2.121,2.24353 30.06194,30.06194 0 0 1 -4.32657,3.91458 3.56706,3.56706 0 0 1 -1.94737,0.21179 l -1.221,0.87192 a 42.0613,42.0613 0 0 0 -26.64106,-12.87215 c -0.0298,-0.42685 -0.0662,-1.19953 -0.0778,-1.43281 a 2.543,2.543 0 0 1 -1.04731,-1.60488 30.06426,30.06426 0 0 1 0.364,-5.82225 26.69776,26.69776 0 0 0 0.4368,-3.05093 c 0.01,-0.25811 -0.005,-0.63369 -0.005,-0.9133 a 3.22632,3.22632 0 1 0 -6.41954,0.0033 c 0,0.02978 0.007,0.05957 0.008,0.08935 -0.003,0.26637 -0.0165,0.589 -0.008,0.82229 a 26.97829,26.97829 0 0 0 0.43844,3.05259 30.01817,30.01817 0 0 1 0.35738,5.82059 3.4992,3.4992 0 0 1 -1.04234,1.65948 l -0.0761,1.35837 a 41.863,41.863 0 0 0 -5.80239,0.89179 41.28514,41.28514 0 0 0 -20.96947,11.98036 q -0.58569,-0.40372 -1.15981,-0.8223 a 2.53473,2.53473 0 0 1 -1.906,-0.18531 29.95059,29.95059 0 0 1 -4.32658,-3.90964 26.8142,26.8142 0 0 0 -2.11281,-2.24351 c -0.1953,-0.16711 -0.49465,-0.3954 -0.71311,-0.56917 a 3.82525,3.82525 0 0 0 -2.237,-0.84378 3.09224,3.09224 0 0 0 -2.55788,1.13168 3.4017,3.4017 0 0 0 0.78919,4.732 l 0.04963,0.0347 c 0.21013,0.17207 0.46823,0.39211 0.66346,0.53441 a 26.81052,26.81052 0 0 0 2.66053,1.5569 29.93656,29.93656 0 0 1 4.77328,3.35537 3.56546,3.56546 0 0 1 0.64527,1.85141 l 1.02746,0.91825 a 41.5317,41.5317 0 0 0 -6.54848,28.9541 l -1.34347,0.39046 a 4.43761,4.43761 0 0 1 -1.37989,1.3898 29.95439,29.95439 0 0 1 -5.75276,0.948 26.82029,26.82029 0 0 0 -3.07907,0.24812 c -0.24652,0.0447 -0.589,0.13236 -0.857,0.1985 l -0.02813,0.007 -0.04632,0.0132 a 3.22134,3.22134 0 1 0 1.42619,6.25407 l 0.048,-0.007 c 0.02151,-0.005 0.03972,-0.0165 0.06121,-0.0198 0.26473,-0.0596 0.59729,-0.1241 0.83058,-0.187 a 27.06462,27.06462 0 0 0 2.87887,-1.10355 30.0577,30.0577 0 0 1 5.59558,-1.64624 3.559,3.559 0 0 1 1.84479,0.65187 l 1.39972,-0.2399 a 41.76669,41.76669 0 0 0 18.509,23.1087 l -0.584,1.39972 a 3.18481,3.18481 0 0 1 0.28623,1.815 31.35146,31.35146 0 0 1 -2.90533,5.22009 26.75741,26.75741 0 0 0 -1.72071,2.56447 c -0.12739,0.24158 -0.28953,0.61218 -0.412,0.86532 a 3.223,3.223 0 1 0 5.79577,2.74982 l 0.005,-0.007 v -0.007 c 0.12243,-0.25148 0.29454,-0.58072 0.397,-0.81566 a 26.53858,26.53858 0 0 0 0.92654,-2.94174 22.44726,22.44726 0 0 1 2.48507,-5.76606 2.60755,2.60755 0 0 1 1.38318,-0.675 l 0.728,-1.31533 a 41.535,41.535 0 0 0 29.61755,0.0744 c 0.2035,0.364 0.584,1.0589 0.685,1.23422 a 2.5364,2.5364 0 0 1 1.638,0.996 29.89313,29.89313 0 0 1 2.20383,5.397 26.82885,26.82885 0 0 0 0.93148,2.94173 c 0.10424,0.23658 0.27466,0.57082 0.3971,0.8223 a 3.22465,3.22465 0 1 0 5.80238,-2.74318 c -0.12242,-0.25316 -0.2912,-0.62375 -0.41859,-0.86367 a 26.67166,26.67166 0 0 0 -1.72069,-2.55787 29.94,29.94 0 0 1 -2.84563,-5.09576 2.51991,2.51991 0 0 1 0.24652,-1.89276 11.0397,11.0397 0 0 1 -0.5344,-1.29549 41.76505,41.76505 0 0 0 18.50078,-23.27412 c 0.41528,0.0662 1.13831,0.19192 1.37324,0.23991 a 2.53805,2.53805 0 0 1 1.79514,-0.66678 30.02278,30.02278 0 0 1 5.59724,1.64625 26.72225,26.72225 0 0 0 2.88041,1.11195 c 0.23164,0.0612 0.56253,0.11913 0.82891,0.177 0.0215,0.007 0.0414,0.0165 0.0629,0.0215 l 0.0463,0.007 a 3.22135,3.22135 0 1 0 1.4279,-6.25407 z m -30.49615,-32.69 -13.716,9.72362 -0.048,-0.0215 a 2.83156,2.83156 0 0 1 -4.497,-2.15916 l -0.0149,-0.007 -0.953,-16.81 a 33.347,33.347 0 0 1 19.22888,9.27367 z m -25.83855,18.42472 h 5.16209 l 3.20977,4.01221 -1.15155,5.0049 -4.63591,2.23028 -4.64932,-2.23523 -1.1532,-5.00657 z m -4.85768,-27.10928 a 33.97691,33.97691 0 0 1 3.42485,-0.58909 l -0.95465,16.83481 -0.0695,0.0331 a 2.82923,2.82923 0 0 1 -4.49036,2.16908 l -0.0265,0.0149 -13.80526,-9.78813 a 33.05743,33.05743 0 0 1 15.92138,-8.67464 z m -20.92801,14.96682 12.60412,11.27224 -0.0132,0.0695 a 2.82922,2.82922 0 0 1 -1.11183,4.86262 l -0.0132,0.0546 -16.15642,4.66239 A 33.04568,33.04568 0 0 1 93.56561,135.804 Z m 16.87608,29.94678 -6.41951,15.51113 a 33.22938,33.22938 0 0 1 -13.33543,-16.6908 l 16.565,-2.81259 0.0281,0.0364 a 2.77971,2.77971 0 0 1 0.55591,-0.0496 2.82923,2.82923 0 0 1 2.55789,3.94276 z m 18.94755,19.94855 a 33.18488,33.18488 0 0 1 -18.11036,-0.93151 l 8.14686,-14.73183 h 0.0132 a 2.83253,2.83253 0 0 1 4.98672,-0.005 h 0.0612 l 8.16672,14.75665 q -1.58998,0.53112 -3.26437,0.91165 z m 10.526,-4.37455 -6.4857,-15.66995 0.0198,-0.0281 a 2.83255,2.83255 0 0 1 1.37159,-3.66806 2.80242,2.80242 0 0 1 1.08375,-0.28127 2.73052,2.73052 0 0 1 0.65023,0.048 l 0.0281,-0.0347 16.71231,2.82427 a 33.10369,33.10369 0 0 1 -13.38016,16.80984 z m 15.13553,-24.654 -16.23737,-4.67731 -0.0149,-0.0678 a 2.83252,2.83252 0 0 1 -1.11018,-4.86428 l -0.007,-0.0331 12.53464,-11.21755 a 33.6728,33.6728 0 0 1 4.83451,20.86008 z"
         id="path38" /><path
         class="cls-4"
         d="m 222.93713,286.82 -1.3e-4,0.004 -17.55165,-76.23574 a 13.702,13.702 0 0 0 -7.34672,-9.13972 l -71.04351,-33.91953 a 13.68963,13.68963 0 0 0 -11.79162,0 l -71.02811,33.93722 a 13.6981,13.6981 0 0 0 -7.34892,9.13972 l -17.523,76.23327 a 13.41245,13.41245 0 0 0 -0.0044,5.85206 13.60278,13.60278 0 0 0 0.49533,1.73139 13.20032,13.20032 0 0 0 1.35229,2.74638 c 0.24113,0.3681 0.49533,0.72546 0.77153,1.07169 l 49.16539,61.128 c 0.21473,0.2652 0.45146,0.50853 0.686,0.75626 a 13.527,13.527 0 0 0 2.59288,2.1479 14.02517,14.02517 0 0 0 3.886,1.68984 13.39694,13.39694 0 0 0 3.4541,0.47566 h 0.76493 l 78.07909,-0.0176 a 13.08546,13.08546 0 0 0 1.42023,-0.0832 13.57179,13.57179 0 0 0 2.0032,-0.38143 13.978,13.978 0 0 0 1.39189,-0.44485 c 0.355,-0.13591 0.71,-0.27181 1.052,-0.43618 a 14.058,14.058 0 0 0 1.49039,-0.82849 13.401,13.401 0 0 0 3.26125,-2.88655 l 1.49932,-1.863 47.64873,-59.276 a 13.28318,13.28318 0 0 0 2.12382,-3.81366 13.77568,13.77568 0 0 0 0.504,-1.73579 13.38093,13.38093 0 0 0 -0.004,-5.85202 z M 120.23355,192.28432 a 3.20411,3.20411 0 0 1 1.56352,-0.0419 c -0.52135,0.0131 -1.04476,0.0181 -1.56352,0.0419 z"
         id="path39" /><path
         class="cls-5"
         d="m 189.31976,277.698 c -0.3558,-0.0815 -0.86165,-0.22078 -1.20889,-0.28509 a 35.11008,35.11008 0 0 0 -3.98674,-0.32143 38.88281,38.88281 0 0 1 -7.45693,-1.22389 4.67473,4.67473 0 0 1 -1.794,-1.80475 l -1.6783,-0.48869 a 54.02475,54.02475 0 0 0 -8.65938,-37.41978 c 0.42868,-0.39011 1.24316,-1.11028 1.4724,-1.3225 a 3.288,3.288 0 0 1 0.7802,-2.3556 38.90956,38.90956 0 0 1 6.18376,-4.34464 34.57825,34.57825 0 0 0 3.45518,-2.01482 c 0.26791,-0.19933 0.63444,-0.51443 0.91524,-0.73948 a 4.17965,4.17965 0 1 0 -5.1784,-6.501 c -0.28295,0.22292 -0.66875,0.51657 -0.92169,0.73519 a 34.48937,34.48937 0 0 0 -2.7478,2.90647 38.94539,38.94539 0 0 1 -5.605,5.07131 4.62115,4.62115 0 0 1 -2.5228,0.27437 l -1.58181,1.12957 a 54.48994,54.48994 0 0 0 -34.51323,-16.67575 c -0.0386,-0.553 -0.0857,-1.554 -0.10075,-1.85619 a 3.29441,3.29441 0 0 1 -1.35677,-2.0791 38.948,38.948 0 0 1 0.47154,-7.54268 34.5862,34.5862 0 0 0 0.56586,-3.95244 c 0.0129,-0.33438 -0.006,-0.82094 -0.006,-1.18317 a 4.17967,4.17967 0 1 0 -8.31646,0.004 c 0,0.0386 0.009,0.0772 0.0107,0.11574 -0.004,0.34508 -0.0214,0.76306 -0.0107,1.06528 a 34.95178,34.95178 0 0 0 0.568,3.95459 38.88829,38.88829 0 0 1 0.463,7.54052 4.53324,4.53324 0 0 1 -1.35034,2.14984 l -0.0986,1.75976 a 54.23221,54.23221 0 0 0 -7.51694,1.1553 53.48449,53.48449 0 0 0 -27.1657,15.52043 q -0.75876,-0.523 -1.50252,-1.06527 a 3.28378,3.28378 0 0 1 -2.46921,-0.24007 38.79976,38.79976 0 0 1 -5.605,-5.0649 34.7385,34.7385 0 0 0 -2.73713,-2.90645 c -0.253,-0.21649 -0.64081,-0.51224 -0.92382,-0.73734 a 4.9555,4.9555 0 0 0 -2.898,-1.09312 4.006,4.006 0 0 0 -3.31371,1.46609 4.40686,4.40686 0 0 0 1.02239,6.1302 l 0.06429,0.045 c 0.27223,0.22291 0.60659,0.508 0.85951,0.69232 a 34.73431,34.73431 0 0 0 3.44668,2.01695 38.78248,38.78248 0 0 1 6.18375,4.34684 4.61914,4.61914 0 0 1 0.83594,2.39849 l 1.33106,1.18958 a 53.804,53.804 0 0 0 -8.48363,37.50974 l -1.74045,0.50584 a 5.74905,5.74905 0 0 1 -1.78762,1.80047 38.80733,38.80733 0 0 1 -7.45265,1.22818 34.74065,34.74065 0 0 0 -3.9889,0.32144 c -0.31937,0.0579 -0.763,0.17146 -1.11028,0.25715 l -0.03644,0.009 -0.06,0.0172 a 4.17323,4.17323 0 1 0 1.84762,8.10209 l 0.06222,-0.009 c 0.02787,-0.006 0.05145,-0.0214 0.0793,-0.0257 0.343,-0.0772 0.77378,-0.16076 1.076,-0.24222 a 35.05677,35.05677 0 0 0 3.72955,-1.42964 38.93968,38.93968 0 0 1 7.249,-2.13268 4.61071,4.61071 0 0 1 2.38991,0.84449 l 1.81332,-0.31078 a 54.10829,54.10829 0 0 0 23.97828,29.93709 l -0.75663,1.81332 a 4.126,4.126 0 0 1 0.37082,2.35133 40.61555,40.61555 0 0 1 -3.76383,6.76257 34.662,34.662 0 0 0 -2.22916,3.32225 c -0.165,0.313 -0.37509,0.79307 -0.5337,1.121 a 4.17536,4.17536 0 1 0 7.50837,3.56236 l 0.0064,-0.009 v -0.009 c 0.1586,-0.32579 0.38157,-0.75232 0.5143,-1.05668 a 34.377,34.377 0 0 0 1.20033,-3.811 29.0801,29.0801 0 0 1 3.21939,-7.46988 3.378,3.378 0 0 1 1.79189,-0.87451 l 0.9431,-1.704 a 53.80818,53.80818 0 0 0 38.36923,0.0964 c 0.26363,0.47155 0.75661,1.37179 0.88736,1.59892 a 3.28585,3.28585 0 0 1 2.122,1.29032 38.72618,38.72618 0 0 1 2.855,6.99183 34.75452,34.75452 0 0 0 1.20673,3.811 c 0.135,0.30649 0.35582,0.73949 0.51443,1.06528 a 4.17751,4.17751 0 1 0 7.51693,-3.55377 c -0.1586,-0.328 -0.37724,-0.80806 -0.54228,-1.11887 a 34.55261,34.55261 0 0 0 -2.22914,-3.3137 38.78768,38.78768 0 0 1 -3.68648,-6.6015 3.26452,3.26452 0 0 1 0.31936,-2.45206 14.30174,14.30174 0 0 1 -0.6923,-1.6783 54.10618,54.10618 0 0 0 23.96757,-30.15138 c 0.538,0.0857 1.47467,0.24862 1.779,0.3108 a 3.288,3.288 0 0 1 2.32559,-0.8638 38.8942,38.8942 0 0 1 7.25122,2.13271 34.61683,34.61683 0 0 0 3.73169,1.44037 c 0.30008,0.0793 0.72874,0.15433 1.07384,0.22937 0.0279,0.009 0.0536,0.0214 0.0815,0.0279 l 0.06,0.009 a 4.17322,4.17322 0 1 0 1.84984,-8.10208 z m -39.50746,-42.34954 -17.7689,12.59686 -0.0622,-0.0279 a 3.66825,3.66825 0 0 1 -5.8258,-2.79717 l -0.0193,-0.009 -1.23461,-21.77713 a 43.20064,43.20064 0 0 1 24.91081,12.01387 z m -33.47358,23.86905 h 6.68743 l 4.15823,5.19777 -1.49183,6.4838 -6.00577,2.88931 -6.02314,-2.89572 -1.494,-6.486 z m -6.29308,-35.11981 a 44.01865,44.01865 0 0 1 4.43686,-0.76316 l -1.23674,21.80933 -0.09,0.0429 a 3.66524,3.66524 0 0 1 -5.81722,2.81 l -0.0343,0.0193 -17.8846,-12.6804 a 42.8255,42.8255 0 0 1 20.626,-11.23793 z m -27.112,19.3893 16.32852,14.60308 -0.01715,0.09 a 3.66524,3.66524 0 0 1 -1.44037,6.29948 l -0.01715,0.0707 -20.93049,6.04015 A 42.8104,42.8104 0 0 1 82.93362,243.487 Z m 21.8628,38.79577 -8.31644,20.0945 A 43.04838,43.04838 0 0 1 79.20408,280.75452 l 21.45983,-3.6437 0.0364,0.0472 a 3.60055,3.60055 0 0 1 0.72018,-0.0643 3.66525,3.66525 0 0 1 3.31372,5.1078 z m 24.54636,25.84314 a 42.99064,42.99064 0 0 1 -23.4618,-1.20676 l 10.55419,-19.08494 h 0.0171 a 3.66953,3.66953 0 0 1 6.46025,-0.006 h 0.0793 l 10.57989,19.1171 q -2.0598,0.68807 -4.22897,1.18103 z m 13.63631,-5.66719 -8.40217,-20.30026 0.0257,-0.0364 a 3.66953,3.66953 0 0 1 1.77688,-4.75194 3.63076,3.63076 0 0 1 1.404,-0.36439 3.53794,3.53794 0 0 1 0.84238,0.0622 l 0.0364,-0.045 21.65063,3.65881 a 42.88546,42.88546 0 0 1 -17.33387,21.777 z m 19.60792,-31.939 -21.03535,-6.05941 -0.0193,-0.0879 a 3.66949,3.66949 0 0 1 -1.43823,-6.30162 l -0.009,-0.0429 16.2385,-14.53223 a 43.62282,43.62282 0 0 1 6.26306,27.024 z"
         id="path40" /></g><path
       d="m 54.346285,42.80258 c 15.136557,0 27.407162,12.270601 27.407162,27.407159 v 0 l -3.8e-5,38.748801 12.897528,-4e-5 c 6.232693,0 11.285303,5.0526 11.285303,11.2853 v 0 9.69097 h -1.48422 c -3.58467,0 -6.509334,-2.8702 -6.576713,-6.45424 v 0 -1.61767 l -5.96e-4,-0.0799 c -0.04267,-2.63426 -2.191463,-4.75658 -4.835904,-4.75658 v 0 H 28.551314 c -11.575012,0 -20.9584149,-9.3834 -20.9584149,-20.958409 v 0 -25.858146 c 0,-15.136558 12.2706029,-27.407159 27.4071579,-27.407159 v 0 z m -1.612184,8.067799 H 36.612242 l -0.346586,0.003 C 24.850501,51.058468 15.653829,60.369736 15.653829,71.828994 v 0 24.232235 l 0.0017,0.213284 c 0.113896,7.024717 5.843901,12.684197 12.895758,12.684197 v 0 H 60.795 c 7.123087,0 12.897483,-5.7744 12.897483,-12.897481 v 0 -24.232235 l -0.003,-0.346586 C 73.504483,60.067196 64.193214,50.870527 52.733953,50.870527 Z M 36.67673,63.778847 c 1.837891,0 3.288859,1.500614 3.288859,3.388479 v 0 9.826568 L 51.138035,65.473089 c 1.45097,-1.355393 3.433956,-1.452204 4.836562,-0.145223 v 0 0.04839 c 1.354236,1.258577 1.2575,3.340071 -0.241829,4.695458 v 0 l -8.270514,8.519589 9.624749,13.747529 c 1.16077,1.694236 0.822212,3.824138 -0.725482,4.840676 -1.692802,0.968138 -3.62742,0.435666 -4.788194,-1.258576 v 0 l -8.657438,-12.682578 -2.9503,3.098042 v 7.93871 c 0,1.936265 -1.450968,3.388472 -3.288859,3.388472 -1.837891,0 -3.288859,-1.452207 -3.288859,-3.388472 v 0 -27.107795 c 0,-1.887865 1.450968,-3.38848 3.288859,-3.38848 z"
       id="white_square_logo"
       fill="#ffffff"
       style="fill-rule:evenodd;stroke:none;stroke-width:0.196686" /><text
       xml:space="preserve"
       style="font-weight:bold;font-size:50.8px;line-height:1.25;font-family:Caladea;-inkscape-font-specification:'Caladea Bold';fill:#f9f9f9;stroke-width:0.264583"
       x="56.185879"
       y="99.801453"
       id="text1"><tspan
         sodipodi:role="line"
         id="tspan1"
         style="font-style:normal;font-variant:normal;font-weight:normal;font-stretch:normal;font-size:50.8px;font-family:Cantarell;-inkscape-font-specification:Cantarell;fill:#f9f9f9;stroke-width:0.264583"
         x="56.185879"
         y="99.801453" /></text></g></svg>
